<?xml version="1.0" encoding="utf-8" standalone="no"?>
<!DOCTYPE svg PUBLIC "-//W3C//DTD SVG 1.1//EN"
  "http://www.w3.org/Graphics/SVG/1.1/DTD/svg11.dtd">
<svg xmlns:xlink="http://www.w3.org/1999/xlink" width="460.8pt" height="345.6pt" viewBox="0 0 460.8 345.6" xmlns="http://www.w3.org/2000/svg" version="1.1">
 <metadata>
  <rdf:RDF xmlns:dc="http://purl.org/dc/elements/1.1/" xmlns:cc="http://creativecommons.org/ns#" xmlns:rdf="http://www.w3.org/1999/02/22-rdf-syntax-ns#">
   <cc:Work>
    <dc:type rdf:resource="http://purl.org/dc/dcmitype/StillImage"/>
    <dc:date>2022-03-29T23:31:47.193184</dc:date>
    <dc:format>image/svg+xml</dc:format>
    <dc:creator>
     <cc:Agent>
      <dc:title>Matplotlib v3.5.1, https://matplotlib.org/</dc:title>
     </cc:Agent>
    </dc:creator>
   </cc:Work>
  </rdf:RDF>
 </metadata>
 <defs>
  <style type="text/css">*{stroke-linejoin: round; stroke-linecap: butt}</style>
 </defs>
 <g id="figure_1">
  <g id="patch_1">
   <path d="M 0 345.6 
L 460.8 345.6 
L 460.8 0 
L 0 0 
z
" style="fill: #ffffff"/>
  </g>
  <g id="axes_1">
   <g id="patch_2">
    <path d="M 57.6 307.584 
L 414.72 307.584 
L 414.72 41.472 
L 57.6 41.472 
z
" style="fill: #ffffff"/>
   </g>
   <g id="PolyCollection_1">
    <defs>
     <path id="ma4d77f2893" d="M 73.832727 -50.448577 
L 73.832727 -50.448577 
L 74.979916 -50.448577 
L 76.127106 -50.448577 
L 77.274295 -50.448577 
L 78.421484 -50.448577 
L 79.568673 -50.448577 
L 80.715863 -50.448577 
L 81.863052 -50.448577 
L 83.010241 -50.448577 
L 84.15743 -50.448577 
L 85.304619 -50.448577 
L 86.451809 -50.448577 
L 87.598998 -50.448577 
L 88.746187 -50.448577 
L 89.893376 -50.448577 
L 91.040565 -50.448577 
L 92.187755 -50.448577 
L 93.334944 -50.448577 
L 94.482133 -50.448577 
L 95.629322 -50.448577 
L 96.776511 -50.448577 
L 97.923701 -50.448577 
L 99.07089 -50.448577 
L 100.218079 -50.448577 
L 101.365268 -50.448577 
L 102.512457 -50.448577 
L 103.659647 -50.448577 
L 104.806836 -50.448577 
L 105.954025 -50.448577 
L 107.101214 -50.448577 
L 108.248403 -50.448577 
L 109.395593 -50.448577 
L 110.542782 -50.448577 
L 111.689971 -50.448577 
L 112.83716 -50.448577 
L 113.98435 -50.448577 
L 115.131539 -50.448577 
L 116.278728 -50.448577 
L 117.425917 -50.448577 
L 118.573106 -50.448577 
L 119.720296 -50.448577 
L 120.867485 -50.448577 
L 122.014674 -50.448577 
L 123.161863 -50.448577 
L 124.309052 -50.448577 
L 125.456242 -50.448577 
L 126.603431 -50.448577 
L 127.75062 -50.448577 
L 128.897809 -50.448577 
L 130.044998 -50.448577 
L 131.192188 -50.448577 
L 132.339377 -50.448577 
L 133.486566 -50.448577 
L 134.633755 -50.448577 
L 135.780944 -50.448577 
L 136.928134 -50.448577 
L 138.075323 -50.448577 
L 139.222512 -50.448577 
L 140.369701 -50.448577 
L 141.51689 -50.448577 
L 142.66408 -50.448577 
L 143.811269 -50.448577 
L 144.958458 -50.448577 
L 146.105647 -50.448577 
L 147.252836 -50.448577 
L 148.400026 -50.448577 
L 149.547215 -50.448577 
L 150.694404 -50.448577 
L 151.841593 -50.448577 
L 152.988783 -50.448577 
L 154.135972 -50.448577 
L 155.283161 -50.448577 
L 156.43035 -50.448577 
L 157.577539 -50.448577 
L 158.724729 -50.448577 
L 159.871918 -50.448577 
L 161.019107 -50.448577 
L 162.166296 -50.448577 
L 163.313485 -50.448577 
L 164.460675 -50.448577 
L 165.607864 -50.448577 
L 166.755053 -50.448577 
L 167.902242 -50.448577 
L 169.049431 -50.448577 
L 170.196621 -50.448577 
L 171.34381 -50.448577 
L 172.490999 -50.448577 
L 173.638188 -50.448577 
L 174.785377 -50.448577 
L 175.932567 -50.448577 
L 177.079756 -50.448577 
L 178.226945 -50.448577 
L 179.374134 -50.448577 
L 180.521323 -50.448577 
L 181.668513 -50.448577 
L 182.815702 -50.448577 
L 183.962891 -50.448577 
L 185.11008 -50.448577 
L 186.25727 -50.448577 
L 187.404459 -50.448577 
L 188.551648 -50.448577 
L 189.698837 -50.448577 
L 190.846026 -50.448577 
L 191.993216 -50.448577 
L 193.140405 -50.448577 
L 194.287594 -50.448577 
L 195.434783 -50.448577 
L 196.581972 -50.448577 
L 197.729162 -50.448577 
L 198.876351 -50.448577 
L 200.02354 -50.448577 
L 201.170729 -50.448577 
L 202.317918 -50.448577 
L 203.465108 -50.448577 
L 204.612297 -50.448577 
L 205.759486 -50.448577 
L 206.906675 -50.448577 
L 208.053864 -50.448577 
L 209.201054 -50.448577 
L 210.348243 -50.448577 
L 211.495432 -50.448577 
L 212.642621 -50.448577 
L 213.78981 -50.448577 
L 214.937 -50.448577 
L 216.084189 -50.448577 
L 217.231378 -50.448577 
L 218.378567 -50.448577 
L 219.525757 -50.448577 
L 220.672946 -50.448577 
L 221.820135 -50.448577 
L 222.967324 -50.448577 
L 224.114513 -50.448577 
L 225.261703 -50.448577 
L 226.408892 -50.448577 
L 227.556081 -50.448577 
L 228.70327 -50.448577 
L 229.850459 -50.448577 
L 230.997649 -50.448577 
L 232.144838 -50.448577 
L 233.292027 -50.448577 
L 234.439216 -50.448577 
L 235.586405 -50.448577 
L 236.733595 -50.448577 
L 237.880784 -50.448577 
L 239.027973 -50.448577 
L 240.175162 -50.448577 
L 241.322351 -50.448577 
L 242.469541 -50.448577 
L 243.61673 -50.448577 
L 244.763919 -50.448577 
L 245.911108 -50.448577 
L 247.058297 -50.448577 
L 248.205487 -50.448577 
L 249.352676 -50.448577 
L 250.499865 -50.448577 
L 251.647054 -50.448577 
L 252.794243 -50.448577 
L 253.941433 -50.448577 
L 255.088622 -50.448577 
L 256.235811 -50.448577 
L 257.383 -50.448577 
L 258.53019 -50.448577 
L 259.677379 -50.448577 
L 260.824568 -50.448577 
L 261.971757 -50.448577 
L 263.118946 -50.448577 
L 264.266136 -50.448577 
L 265.413325 -50.448577 
L 266.560514 -50.448577 
L 267.707703 -50.448577 
L 268.854892 -50.448577 
L 270.002082 -50.448577 
L 271.149271 -50.448577 
L 272.29646 -50.448577 
L 273.443649 -50.448577 
L 274.590838 -50.448577 
L 275.738028 -50.448577 
L 276.885217 -50.448577 
L 278.032406 -50.448577 
L 279.179595 -50.448577 
L 280.326784 -50.448577 
L 281.473974 -50.448577 
L 282.621163 -50.448577 
L 283.768352 -50.448577 
L 284.915541 -50.448577 
L 286.06273 -50.448577 
L 287.20992 -50.448577 
L 288.357109 -50.448577 
L 289.504298 -50.448577 
L 290.651487 -50.448577 
L 291.798677 -50.448577 
L 292.945866 -50.448577 
L 294.093055 -50.448577 
L 295.240244 -50.448577 
L 296.387433 -50.448577 
L 297.534623 -50.448577 
L 298.681812 -50.448577 
L 299.829001 -50.448577 
L 300.97619 -50.448577 
L 302.123379 -50.448577 
L 303.270569 -50.448577 
L 304.417758 -50.448577 
L 305.564947 -50.448577 
L 306.712136 -50.448577 
L 307.859325 -50.448577 
L 309.006515 -50.448577 
L 310.153704 -50.448577 
L 311.300893 -50.448577 
L 312.448082 -50.448577 
L 313.595271 -50.448577 
L 314.742461 -50.448577 
L 315.88965 -50.448577 
L 317.036839 -50.448577 
L 318.184028 -50.448577 
L 319.331217 -50.448577 
L 320.478407 -50.448577 
L 321.625596 -50.448577 
L 322.772785 -50.448577 
L 323.919974 -50.448577 
L 325.067164 -50.448577 
L 326.214353 -50.448577 
L 327.361542 -50.448577 
L 328.508731 -50.448577 
L 329.65592 -50.448577 
L 330.80311 -50.448577 
L 331.950299 -50.448577 
L 333.097488 -50.448577 
L 334.244677 -50.448577 
L 335.391866 -50.448577 
L 336.539056 -50.448577 
L 337.686245 -50.448577 
L 338.833434 -50.448577 
L 339.980623 -50.448577 
L 341.127812 -50.448577 
L 342.275002 -50.448577 
L 343.422191 -50.448577 
L 344.56938 -50.448577 
L 345.716569 -50.448577 
L 346.863758 -50.448577 
L 348.010948 -50.448577 
L 349.158137 -50.448577 
L 350.305326 -50.448577 
L 351.452515 -50.448577 
L 352.599704 -50.448577 
L 353.746894 -50.448577 
L 354.894083 -50.448577 
L 356.041272 -50.448577 
L 357.188461 -50.448577 
L 358.33565 -50.448577 
L 359.48284 -50.448577 
L 360.630029 -50.448577 
L 361.777218 -50.448577 
L 362.924407 -50.448577 
L 364.071597 -50.448577 
L 365.218786 -50.448577 
L 366.365975 -50.448577 
L 367.513164 -50.448577 
L 367.513164 -50.448577 
L 367.513164 -50.448577 
L 366.365975 -50.448577 
L 365.218786 -50.448577 
L 364.071597 -50.448577 
L 362.924407 -50.448577 
L 361.777218 -50.448577 
L 360.630029 -50.448577 
L 359.48284 -50.448577 
L 358.33565 -50.448577 
L 357.188461 -50.448577 
L 356.041272 -50.448577 
L 354.894083 -50.448577 
L 353.746894 -50.448577 
L 352.599704 -50.448577 
L 351.452515 -50.448577 
L 350.305326 -50.448577 
L 349.158137 -50.448577 
L 348.010948 -50.448577 
L 346.863758 -50.448577 
L 345.716569 -50.448577 
L 344.56938 -50.448577 
L 343.422191 -50.448577 
L 342.275002 -50.448577 
L 341.127812 -50.448577 
L 339.980623 -50.448577 
L 338.833434 -50.448577 
L 337.686245 -50.448577 
L 336.539056 -50.448577 
L 335.391866 -50.448577 
L 334.244677 -50.448577 
L 333.097488 -50.448577 
L 331.950299 -50.448577 
L 330.80311 -50.448577 
L 329.65592 -50.448577 
L 328.508731 -50.448577 
L 327.361542 -50.448577 
L 326.214353 -50.448577 
L 325.067164 -50.448577 
L 323.919974 -50.448577 
L 322.772785 -50.448577 
L 321.625596 -50.448577 
L 320.478407 -50.448577 
L 319.331217 -50.448577 
L 318.184028 -50.448577 
L 317.036839 -50.448577 
L 315.88965 -50.448577 
L 314.742461 -50.448577 
L 313.595271 -50.448577 
L 312.448082 -50.448577 
L 311.300893 -50.448577 
L 310.153704 -50.448577 
L 309.006515 -50.448577 
L 307.859325 -50.448577 
L 306.712136 -50.448577 
L 305.564947 -50.448577 
L 304.417758 -50.448577 
L 303.270569 -50.448577 
L 302.123379 -50.448577 
L 300.97619 -50.448577 
L 299.829001 -50.448577 
L 298.681812 -50.448577 
L 297.534623 -50.448577 
L 296.387433 -50.448577 
L 295.240244 -50.448577 
L 294.093055 -50.448577 
L 292.945866 -50.448577 
L 291.798677 -50.448577 
L 290.651487 -50.448577 
L 289.504298 -50.448577 
L 288.357109 -50.448577 
L 287.20992 -50.448577 
L 286.06273 -50.448577 
L 284.915541 -50.448577 
L 283.768352 -50.448577 
L 282.621163 -50.448577 
L 281.473974 -50.448577 
L 280.326784 -50.448577 
L 279.179595 -50.448577 
L 278.032406 -50.448577 
L 276.885217 -50.448577 
L 275.738028 -50.448577 
L 274.590838 -50.448577 
L 273.443649 -50.448577 
L 272.29646 -50.448577 
L 271.149271 -50.448577 
L 270.002082 -50.448577 
L 268.854892 -50.448577 
L 267.707703 -50.448577 
L 266.560514 -50.448577 
L 265.413325 -50.448577 
L 264.266136 -50.448577 
L 263.118946 -50.448577 
L 261.971757 -50.448577 
L 260.824568 -50.448577 
L 259.677379 -50.448577 
L 258.53019 -50.448577 
L 257.383 -50.448577 
L 256.235811 -50.448577 
L 255.088622 -50.448577 
L 253.941433 -50.448577 
L 252.794243 -50.448577 
L 251.647054 -50.448577 
L 250.499865 -50.448577 
L 249.352676 -50.448577 
L 248.205487 -50.448577 
L 247.058297 -50.448577 
L 245.911108 -50.448577 
L 244.763919 -50.448577 
L 243.61673 -50.448577 
L 242.469541 -50.448577 
L 241.322351 -50.448577 
L 240.175162 -50.448577 
L 239.027973 -50.448577 
L 237.880784 -50.448577 
L 236.733595 -50.448577 
L 235.586405 -50.448577 
L 234.439216 -50.448577 
L 233.292027 -50.448577 
L 232.144838 -50.448577 
L 230.997649 -50.448577 
L 229.850459 -50.448577 
L 228.70327 -50.448577 
L 227.556081 -50.448577 
L 226.408892 -50.448577 
L 225.261703 -50.448577 
L 224.114513 -50.448577 
L 222.967324 -50.448577 
L 221.820135 -50.448577 
L 220.672946 -50.448577 
L 219.525757 -50.448577 
L 218.378567 -50.448577 
L 217.231378 -50.448577 
L 216.084189 -50.448577 
L 214.937 -50.448577 
L 213.78981 -50.448577 
L 212.642621 -50.448577 
L 211.495432 -50.448577 
L 210.348243 -50.448577 
L 209.201054 -50.448577 
L 208.053864 -50.448577 
L 206.906675 -50.448577 
L 205.759486 -50.448577 
L 204.612297 -50.448577 
L 203.465108 -50.448577 
L 202.317918 -50.448577 
L 201.170729 -50.448577 
L 200.02354 -50.448577 
L 198.876351 -50.448577 
L 197.729162 -50.448577 
L 196.581972 -50.448577 
L 195.434783 -50.448577 
L 194.287594 -50.448577 
L 193.140405 -50.448577 
L 191.993216 -50.448577 
L 190.846026 -50.448577 
L 189.698837 -50.448577 
L 188.551648 -50.448577 
L 187.404459 -50.448577 
L 186.25727 -50.448577 
L 185.11008 -50.448577 
L 183.962891 -50.448577 
L 182.815702 -50.448577 
L 181.668513 -50.448577 
L 180.521323 -50.448577 
L 179.374134 -50.448577 
L 178.226945 -50.448577 
L 177.079756 -50.448577 
L 175.932567 -50.448577 
L 174.785377 -50.448577 
L 173.638188 -50.448577 
L 172.490999 -50.448577 
L 171.34381 -50.448577 
L 170.196621 -50.448577 
L 169.049431 -50.448577 
L 167.902242 -50.448577 
L 166.755053 -50.448577 
L 165.607864 -50.448577 
L 164.460675 -50.448577 
L 163.313485 -50.448577 
L 162.166296 -50.448577 
L 161.019107 -50.448577 
L 159.871918 -50.448577 
L 158.724729 -50.448577 
L 157.577539 -50.448577 
L 156.43035 -50.448577 
L 155.283161 -50.448577 
L 154.135972 -50.448577 
L 152.988783 -50.448577 
L 151.841593 -50.448577 
L 150.694404 -50.448577 
L 149.547215 -50.448577 
L 148.400026 -50.448577 
L 147.252836 -50.448577 
L 146.105647 -50.448577 
L 144.958458 -50.448577 
L 143.811269 -50.448577 
L 142.66408 -50.448577 
L 141.51689 -50.448577 
L 140.369701 -50.448577 
L 139.222512 -50.448577 
L 138.075323 -50.448577 
L 136.928134 -50.448577 
L 135.780944 -50.448577 
L 134.633755 -50.448577 
L 133.486566 -50.448577 
L 132.339377 -50.448577 
L 131.192188 -50.448577 
L 130.044998 -50.448577 
L 128.897809 -50.448577 
L 127.75062 -50.448577 
L 126.603431 -50.448577 
L 125.456242 -50.448577 
L 124.309052 -50.448577 
L 123.161863 -50.448577 
L 122.014674 -50.448577 
L 120.867485 -50.448577 
L 119.720296 -50.448577 
L 118.573106 -50.448577 
L 117.425917 -50.448577 
L 116.278728 -50.448577 
L 115.131539 -50.448577 
L 113.98435 -50.448577 
L 112.83716 -50.448577 
L 111.689971 -50.448577 
L 110.542782 -50.448577 
L 109.395593 -50.448577 
L 108.248403 -50.448577 
L 107.101214 -50.448577 
L 105.954025 -50.448577 
L 104.806836 -50.448577 
L 103.659647 -50.448577 
L 102.512457 -50.448577 
L 101.365268 -50.448577 
L 100.218079 -50.448577 
L 99.07089 -50.448577 
L 97.923701 -50.448577 
L 96.776511 -50.448577 
L 95.629322 -50.448577 
L 94.482133 -50.448577 
L 93.334944 -50.448577 
L 92.187755 -50.448577 
L 91.040565 -50.448577 
L 89.893376 -50.448577 
L 88.746187 -50.448577 
L 87.598998 -50.448577 
L 86.451809 -50.448577 
L 85.304619 -50.448577 
L 84.15743 -50.448577 
L 83.010241 -50.448577 
L 81.863052 -50.448577 
L 80.715863 -50.448577 
L 79.568673 -50.448577 
L 78.421484 -50.448577 
L 77.274295 -50.448577 
L 76.127106 -50.448577 
L 74.979916 -50.448577 
L 73.832727 -50.448577 
z
" style="stroke: #1f77b4; stroke-opacity: 0.2"/>
    </defs>
    <g clip-path="url(#pbac0b5a141)">
     <use xlink:href="#ma4d77f2893" x="0" y="345.6" style="fill: #1f77b4; fill-opacity: 0.2; stroke: #1f77b4; stroke-opacity: 0.2"/>
    </g>
   </g>
   <g id="PolyCollection_2">
    <defs>
     <path id="me13fec51fa" d="M 73.832727 -50.112 
L 73.832727 -50.112 
L 74.979916 -50.153281 
L 76.127106 -50.219847 
L 77.274295 -50.30147 
L 78.421484 -50.409289 
L 79.568673 -50.554745 
L 80.715863 -50.61125 
L 81.863052 -50.697792 
L 83.010241 -50.776286 
L 84.15743 -50.868694 
L 85.304619 -50.919144 
L 86.451809 -50.997373 
L 87.598998 -51.09154 
L 88.746187 -51.121485 
L 89.893376 -51.208393 
L 91.040565 -51.323318 
L 92.187755 -51.505561 
L 93.334944 -51.567341 
L 94.482133 -51.649394 
L 95.629322 -51.742334 
L 96.776511 -51.795224 
L 97.923701 -51.85291 
L 99.07089 -51.9544 
L 100.218079 -52.068433 
L 101.365268 -52.120233 
L 102.512457 -52.211205 
L 103.659647 -52.327702 
L 104.806836 -52.357699 
L 105.954025 -52.562015 
L 107.101214 -52.650921 
L 108.248403 -52.713485 
L 109.395593 -52.763135 
L 110.542782 -52.821936 
L 111.689971 -52.930016 
L 112.83716 -52.974162 
L 113.98435 -53.057648 
L 115.131539 -53.168007 
L 116.278728 -53.297453 
L 117.425917 -53.399134 
L 118.573106 -53.444725 
L 119.720296 -53.585756 
L 120.867485 -53.664983 
L 122.014674 -53.754873 
L 123.161863 -53.827253 
L 124.309052 -53.975429 
L 125.456242 -54.085235 
L 126.603431 -54.280116 
L 127.75062 -54.34563 
L 128.897809 -54.477599 
L 130.044998 -54.63846 
L 131.192188 -54.694013 
L 132.339377 -54.764199 
L 133.486566 -54.864373 
L 134.633755 -55.000388 
L 135.780944 -55.066641 
L 136.928134 -55.234701 
L 138.075323 -55.346165 
L 139.222512 -55.411027 
L 140.369701 -55.520791 
L 141.51689 -55.596351 
L 142.66408 -55.658352 
L 143.811269 -55.761138 
L 144.958458 -55.920719 
L 146.105647 -56.081841 
L 147.252836 -56.21158 
L 148.400026 -56.309999 
L 149.547215 -56.414769 
L 150.694404 -56.519261 
L 151.841593 -56.596152 
L 152.988783 -56.706037 
L 154.135972 -56.793136 
L 155.283161 -56.881522 
L 156.43035 -57.002882 
L 157.577539 -57.117278 
L 158.724729 -57.207804 
L 159.871918 -57.213722 
L 161.019107 -57.364509 
L 162.166296 -57.541407 
L 163.313485 -57.572536 
L 164.460675 -57.666921 
L 165.607864 -57.768818 
L 166.755053 -57.913751 
L 167.902242 -58.066344 
L 169.049431 -58.154756 
L 170.196621 -58.261155 
L 171.34381 -58.303302 
L 172.490999 -58.451126 
L 173.638188 -58.527419 
L 174.785377 -58.542322 
L 175.932567 -58.645956 
L 177.079756 -58.836668 
L 178.226945 -58.879166 
L 179.374134 -59.000921 
L 180.521323 -59.15965 
L 181.668513 -59.206045 
L 182.815702 -59.349721 
L 183.962891 -59.396339 
L 185.11008 -59.510882 
L 186.25727 -59.603291 
L 187.404459 -59.720383 
L 188.551648 -59.753043 
L 189.698837 -59.759287 
L 190.846026 -59.886741 
L 191.993216 -59.929541 
L 193.140405 -60.139327 
L 194.287594 -60.188721 
L 195.434783 -60.319418 
L 196.581972 -60.412988 
L 197.729162 -60.492835 
L 198.876351 -60.637344 
L 200.02354 -60.713173 
L 201.170729 -60.813345 
L 202.317918 -60.969965 
L 203.465108 -61.023911 
L 204.612297 -61.097903 
L 205.759486 -61.08601 
L 206.906675 -61.247394 
L 208.053864 -61.425381 
L 209.201054 -61.565127 
L 210.348243 -61.539249 
L 211.495432 -61.732216 
L 212.642621 -61.868566 
L 213.78981 -61.879869 
L 214.937 -61.926458 
L 216.084189 -62.084918 
L 217.231378 -62.18556 
L 218.378567 -62.263199 
L 219.525757 -62.387385 
L 220.672946 -62.43359 
L 221.820135 -62.568764 
L 222.967324 -62.614957 
L 224.114513 -62.722488 
L 225.261703 -62.811513 
L 226.408892 -62.948026 
L 227.556081 -62.965584 
L 228.70327 -63.14584 
L 229.850459 -63.220621 
L 230.997649 -63.353621 
L 232.144838 -63.523008 
L 233.292027 -63.556077 
L 234.439216 -63.619547 
L 235.586405 -63.635897 
L 236.733595 -63.840222 
L 237.880784 -63.893754 
L 239.027973 -64.018527 
L 240.175162 -64.087997 
L 241.322351 -64.220365 
L 242.469541 -64.31535 
L 243.61673 -64.344425 
L 244.763919 -64.445647 
L 245.911108 -64.539128 
L 247.058297 -64.581993 
L 248.205487 -64.663969 
L 249.352676 -64.740732 
L 250.499865 -64.869451 
L 251.647054 -64.916263 
L 252.794243 -65.027107 
L 253.941433 -65.088065 
L 255.088622 -65.248227 
L 256.235811 -65.355647 
L 257.383 -65.550541 
L 258.53019 -65.54117 
L 259.677379 -65.592951 
L 260.824568 -65.706755 
L 261.971757 -65.848999 
L 263.118946 -65.87312 
L 264.266136 -65.968432 
L 265.413325 -65.981682 
L 266.560514 -66.151554 
L 267.707703 -66.27713 
L 268.854892 -66.256149 
L 270.002082 -66.365404 
L 271.149271 -66.506616 
L 272.29646 -66.530923 
L 273.443649 -66.706006 
L 274.590838 -66.722222 
L 275.738028 -66.756216 
L 276.885217 -66.935205 
L 278.032406 -67.056646 
L 279.179595 -67.184509 
L 280.326784 -67.254206 
L 281.473974 -67.457209 
L 282.621163 -67.457821 
L 283.768352 -67.610914 
L 284.915541 -67.64907 
L 286.06273 -67.647224 
L 287.20992 -67.739171 
L 288.357109 -68.023796 
L 289.504298 -67.985562 
L 290.651487 -68.054755 
L 291.798677 -68.263412 
L 292.945866 -68.338922 
L 294.093055 -68.383291 
L 295.240244 -68.448937 
L 296.387433 -68.545104 
L 297.534623 -68.486274 
L 298.681812 -68.784978 
L 299.829001 -68.83639 
L 300.97619 -68.912665 
L 302.123379 -68.929245 
L 303.270569 -68.565337 
L 304.417758 -68.667039 
L 305.564947 -68.670042 
L 306.712136 -68.756937 
L 307.859325 -68.791458 
L 309.006515 -68.898363 
L 310.153704 -69.040721 
L 311.300893 -69.070832 
L 312.448082 -69.170231 
L 313.595271 -69.348725 
L 314.742461 -69.235084 
L 315.88965 -68.92362 
L 317.036839 -68.954992 
L 318.184028 -69.024013 
L 319.331217 -69.262552 
L 320.478407 -69.250623 
L 321.625596 -69.40468 
L 322.772785 -69.467009 
L 323.919974 -69.665278 
L 325.067164 -69.759158 
L 326.214353 -69.820629 
L 327.361542 -69.933528 
L 328.508731 -70.01612 
L 329.65592 -69.899141 
L 330.80311 -69.8987 
L 331.950299 -69.859587 
L 333.097488 -70.023611 
L 334.244677 -70.069929 
L 335.391866 -70.363643 
L 336.539056 -70.484217 
L 337.686245 -70.494587 
L 338.833434 -70.63445 
L 339.980623 -70.429841 
L 341.127812 -70.153742 
L 342.275002 -70.308687 
L 343.422191 -69.776362 
L 344.56938 -69.872527 
L 345.716569 -69.929432 
L 346.863758 -70.020744 
L 348.010948 -70.087353 
L 349.158137 -70.093088 
L 350.305326 -70.25895 
L 351.452515 -70.268214 
L 352.599704 -70.361291 
L 353.746894 -70.378053 
L 354.894083 -70.385993 
L 354.894083 -73.326516 
L 354.894083 -73.326516 
L 353.746894 -72.719973 
L 352.599704 -72.713797 
L 351.452515 -72.613662 
L 350.305326 -72.367957 
L 349.158137 -72.345019 
L 348.010948 -72.211359 
L 346.863758 -72.169893 
L 345.716569 -72.159306 
L 344.56938 -72.13328 
L 343.422191 -72.079904 
L 342.275002 -72.58146 
L 341.127812 -72.466217 
L 339.980623 -73.392332 
L 338.833434 -73.413712 
L 337.686245 -73.263403 
L 336.539056 -72.999062 
L 335.391866 -72.793052 
L 334.244677 -72.661157 
L 333.097488 -72.570576 
L 331.950299 -72.404032 
L 330.80311 -72.275027 
L 329.65592 -72.4056 
L 328.508731 -72.500581 
L 327.361542 -72.413057 
L 326.214353 -72.280043 
L 325.067164 -72.18382 
L 323.919974 -72.034531 
L 322.772785 -71.893835 
L 321.625596 -71.882067 
L 320.478407 -71.743958 
L 319.331217 -71.630841 
L 318.184028 -71.564903 
L 317.036839 -71.363332 
L 315.88965 -71.33424 
L 314.742461 -71.95842 
L 313.595271 -71.927433 
L 312.448082 -71.850457 
L 311.300893 -71.666219 
L 310.153704 -71.549238 
L 309.006515 -71.473942 
L 307.859325 -71.272746 
L 306.712136 -71.312075 
L 305.564947 -71.172057 
L 304.417758 -71.158446 
L 303.270569 -71.045273 
L 302.123379 -71.257965 
L 300.97619 -71.306132 
L 299.829001 -71.225551 
L 298.681812 -71.006894 
L 297.534623 -70.924454 
L 296.387433 -70.857807 
L 295.240244 -70.795737 
L 294.093055 -70.575331 
L 292.945866 -70.660515 
L 291.798677 -70.429356 
L 290.651487 -70.334409 
L 289.504298 -70.194827 
L 288.357109 -70.118127 
L 287.20992 -69.944044 
L 286.06273 -70.098093 
L 284.915541 -69.799048 
L 283.768352 -69.664932 
L 282.621163 -69.753874 
L 281.473974 -69.549835 
L 280.326784 -69.470383 
L 279.179595 -69.397936 
L 278.032406 -69.260236 
L 276.885217 -69.22021 
L 275.738028 -69.114957 
L 274.590838 -68.874143 
L 273.443649 -68.830563 
L 272.29646 -68.73935 
L 271.149271 -68.667217 
L 270.002082 -68.559425 
L 268.854892 -68.431388 
L 267.707703 -68.372873 
L 266.560514 -68.305069 
L 265.413325 -68.181223 
L 264.266136 -67.962423 
L 263.118946 -68.054293 
L 261.971757 -67.821895 
L 260.824568 -67.752744 
L 259.677379 -67.701374 
L 258.53019 -67.606182 
L 257.383 -67.432171 
L 256.235811 -67.387086 
L 255.088622 -67.139964 
L 253.941433 -67.064661 
L 252.794243 -66.984562 
L 251.647054 -66.949491 
L 250.499865 -66.848673 
L 249.352676 -66.6408 
L 248.205487 -66.556565 
L 247.058297 -66.471139 
L 245.911108 -66.363146 
L 244.763919 -66.335946 
L 243.61673 -66.16815 
L 242.469541 -66.086731 
L 241.322351 -66.040236 
L 240.175162 -65.901949 
L 239.027973 -65.813682 
L 237.880784 -65.594961 
L 236.733595 -65.611889 
L 235.586405 -65.503177 
L 234.439216 -65.368768 
L 233.292027 -65.18904 
L 232.144838 -65.090094 
L 230.997649 -65.08988 
L 229.850459 -64.845061 
L 228.70327 -64.856241 
L 227.556081 -64.594385 
L 226.408892 -64.496302 
L 225.261703 -64.480373 
L 224.114513 -64.429648 
L 222.967324 -64.299031 
L 221.820135 -64.191921 
L 220.672946 -64.06854 
L 219.525757 -63.974021 
L 218.378567 -63.818577 
L 217.231378 -63.737633 
L 216.084189 -63.641872 
L 214.937 -63.501837 
L 213.78981 -63.454963 
L 212.642621 -63.324638 
L 211.495432 -63.21295 
L 210.348243 -63.041195 
L 209.201054 -62.937511 
L 208.053864 -62.825617 
L 206.906675 -62.622786 
L 205.759486 -62.534863 
L 204.612297 -62.430141 
L 203.465108 -62.31096 
L 202.317918 -62.278431 
L 201.170729 -62.137648 
L 200.02354 -62.025352 
L 198.876351 -61.884626 
L 197.729162 -61.834671 
L 196.581972 -61.784027 
L 195.434783 -61.589661 
L 194.287594 -61.561218 
L 193.140405 -61.475387 
L 191.993216 -61.340205 
L 190.846026 -61.289737 
L 189.698837 -61.228976 
L 188.551648 -61.098908 
L 187.404459 -61.029144 
L 186.25727 -60.911571 
L 185.11008 -60.749266 
L 183.962891 -60.661457 
L 182.815702 -60.593964 
L 181.668513 -60.459131 
L 180.521323 -60.329217 
L 179.374134 -60.271522 
L 178.226945 -60.076195 
L 177.079756 -59.969518 
L 175.932567 -59.877515 
L 174.785377 -59.792781 
L 173.638188 -59.688192 
L 172.490999 -59.594868 
L 171.34381 -59.484082 
L 170.196621 -59.428681 
L 169.049431 -59.334424 
L 167.902242 -59.213924 
L 166.755053 -59.117679 
L 165.607864 -59.061774 
L 164.460675 -58.977408 
L 163.313485 -58.768642 
L 162.166296 -58.706151 
L 161.019107 -58.559075 
L 159.871918 -58.536906 
L 158.724729 -58.389666 
L 157.577539 -58.377877 
L 156.43035 -58.16366 
L 155.283161 -58.032208 
L 154.135972 -57.97479 
L 152.988783 -57.955328 
L 151.841593 -57.817929 
L 150.694404 -57.741932 
L 149.547215 -57.660483 
L 148.400026 -57.508614 
L 147.252836 -57.369362 
L 146.105647 -57.262927 
L 144.958458 -57.158757 
L 143.811269 -57.015462 
L 142.66408 -56.944106 
L 141.51689 -56.789037 
L 140.369701 -56.701976 
L 139.222512 -56.546727 
L 138.075323 -56.446672 
L 136.928134 -56.381965 
L 135.780944 -56.303956 
L 134.633755 -56.175412 
L 133.486566 -56.064194 
L 132.339377 -55.936153 
L 131.192188 -55.776348 
L 130.044998 -55.696836 
L 128.897809 -55.461724 
L 127.75062 -55.38154 
L 126.603431 -55.078469 
L 125.456242 -54.990157 
L 124.309052 -54.771977 
L 123.161863 -54.671875 
L 122.014674 -54.599174 
L 120.867485 -54.534857 
L 119.720296 -54.474691 
L 118.573106 -54.362973 
L 117.425917 -54.286759 
L 116.278728 -54.214357 
L 115.131539 -54.09319 
L 113.98435 -53.946722 
L 112.83716 -53.712665 
L 111.689971 -53.67073 
L 110.542782 -53.491309 
L 109.395593 -53.35409 
L 108.248403 -53.289593 
L 107.101214 -53.176778 
L 105.954025 -53.083564 
L 104.806836 -52.898001 
L 103.659647 -52.837881 
L 102.512457 -52.757392 
L 101.365268 -52.677019 
L 100.218079 -52.603739 
L 99.07089 -52.544083 
L 97.923701 -52.405543 
L 96.776511 -52.335754 
L 95.629322 -52.202529 
L 94.482133 -52.117891 
L 93.334944 -52.07964 
L 92.187755 -52.006941 
L 91.040565 -51.788537 
L 89.893376 -51.746403 
L 88.746187 -51.678305 
L 87.598998 -51.516255 
L 86.451809 -51.392991 
L 85.304619 -51.269085 
L 84.15743 -51.22865 
L 83.010241 -51.116817 
L 81.863052 -50.941645 
L 80.715863 -50.866655 
L 79.568673 -50.820958 
L 78.421484 -50.725743 
L 77.274295 -50.558518 
L 76.127106 -50.386344 
L 74.979916 -50.241918 
L 73.832727 -50.112 
z
" style="stroke: #ff7f0e; stroke-opacity: 0.2"/>
    </defs>
    <g clip-path="url(#pbac0b5a141)">
     <use xlink:href="#me13fec51fa" x="0" y="345.6" style="fill: #ff7f0e; fill-opacity: 0.2; stroke: #ff7f0e; stroke-opacity: 0.2"/>
    </g>
   </g>
   <g id="PolyCollection_3">
    <defs>
     <path id="m035bc6332d" d="M 73.832727 -50.126116 
L 73.832727 -50.126116 
L 74.979916 -50.379204 
L 76.127106 -50.630584 
L 77.274295 -51.277803 
L 78.421484 -51.671851 
L 79.568673 -52.021383 
L 80.715863 -52.450303 
L 81.863052 -52.756885 
L 83.010241 -53.197386 
L 84.15743 -53.690557 
L 85.304619 -53.976268 
L 86.451809 -54.497964 
L 87.598998 -54.695289 
L 88.746187 -55.103698 
L 89.893376 -55.499537 
L 91.040565 -55.817391 
L 92.187755 -56.362709 
L 93.334944 -56.507461 
L 94.482133 -56.815522 
L 95.629322 -57.302972 
L 96.776511 -57.577782 
L 97.923701 -57.893462 
L 99.07089 -58.028784 
L 100.218079 -58.300718 
L 101.365268 -58.674211 
L 102.512457 -58.985827 
L 103.659647 -59.234233 
L 104.806836 -59.709985 
L 105.954025 -59.865252 
L 107.101214 -60.067094 
L 108.248403 -60.262782 
L 109.395593 -60.467923 
L 110.542782 -60.545329 
L 111.689971 -60.993773 
L 112.83716 -61.4986 
L 113.98435 -61.614144 
L 115.131539 -61.749403 
L 116.278728 -62.119921 
L 117.425917 -62.389081 
L 118.573106 -62.89766 
L 119.720296 -63.146273 
L 120.867485 -63.53072 
L 122.014674 -63.807066 
L 123.161863 -64.198634 
L 124.309052 -64.514158 
L 125.456242 -65.066351 
L 126.603431 -65.149346 
L 127.75062 -65.476809 
L 128.897809 -65.698989 
L 130.044998 -65.931785 
L 131.192188 -66.169838 
L 132.339377 -66.454158 
L 133.486566 -66.549171 
L 134.633755 -66.947042 
L 135.780944 -67.392122 
L 136.928134 -68.096294 
L 138.075323 -68.225421 
L 139.222512 -68.617064 
L 140.369701 -69.157364 
L 141.51689 -69.444545 
L 142.66408 -69.902519 
L 143.811269 -70.227038 
L 144.958458 -70.577402 
L 146.105647 -71.23208 
L 147.252836 -71.16205 
L 148.400026 -71.625032 
L 149.547215 -71.978947 
L 150.694404 -72.578857 
L 151.841593 -72.967124 
L 152.988783 -73.375516 
L 154.135972 -73.43659 
L 155.283161 -73.882089 
L 156.43035 -74.147769 
L 157.577539 -74.540649 
L 158.724729 -74.903384 
L 159.871918 -75.10516 
L 161.019107 -75.399799 
L 162.166296 -75.914026 
L 163.313485 -76.500841 
L 164.460675 -76.777403 
L 165.607864 -77.265412 
L 166.755053 -77.471498 
L 167.902242 -77.800671 
L 169.049431 -77.953883 
L 170.196621 -78.455643 
L 171.34381 -78.852524 
L 172.490999 -79.077899 
L 173.638188 -79.284226 
L 174.785377 -79.455783 
L 175.932567 -80.13274 
L 177.079756 -80.283946 
L 178.226945 -80.718573 
L 179.374134 -80.957278 
L 180.521323 -81.261805 
L 181.668513 -81.450952 
L 182.815702 -81.753371 
L 183.962891 -82.123468 
L 185.11008 -82.371478 
L 186.25727 -82.74001 
L 187.404459 -83.556082 
L 188.551648 -83.934562 
L 189.698837 -84.118999 
L 190.846026 -84.939138 
L 191.993216 -85.522903 
L 193.140405 -85.761261 
L 194.287594 -85.995992 
L 195.434783 -86.299317 
L 196.581972 -86.735491 
L 197.729162 -87.116512 
L 198.876351 -87.297362 
L 200.02354 -87.916369 
L 201.170729 -88.238394 
L 202.317918 -88.633373 
L 203.465108 -89.01799 
L 204.612297 -89.408323 
L 205.759486 -89.613378 
L 206.906675 -89.965758 
L 208.053864 -90.239284 
L 209.201054 -90.519377 
L 210.348243 -90.959345 
L 211.495432 -91.257751 
L 212.642621 -91.512111 
L 213.78981 -91.805373 
L 214.937 -92.150501 
L 216.084189 -92.497765 
L 217.231378 -93.174993 
L 218.378567 -93.283026 
L 219.525757 -93.46361 
L 220.672946 -93.67223 
L 221.820135 -94.239414 
L 222.967324 -94.490268 
L 224.114513 -94.671462 
L 225.261703 -95.075825 
L 226.408892 -95.431218 
L 227.556081 -95.813217 
L 228.70327 -96.109693 
L 229.850459 -96.306055 
L 230.997649 -96.640453 
L 232.144838 -96.745626 
L 233.292027 -97.25255 
L 234.439216 -97.694951 
L 235.586405 -98.223342 
L 236.733595 -98.623675 
L 237.880784 -99.125281 
L 239.027973 -99.371973 
L 240.175162 -99.7764 
L 241.322351 -99.999844 
L 242.469541 -100.144733 
L 243.61673 -100.639656 
L 244.763919 -100.987431 
L 245.911108 -101.558947 
L 247.058297 -101.863056 
L 248.205487 -102.128597 
L 249.352676 -102.237604 
L 250.499865 -102.424809 
L 251.647054 -102.976635 
L 252.794243 -103.499138 
L 253.941433 -103.884411 
L 255.088622 -104.116339 
L 256.235811 -104.529547 
L 257.383 -104.760911 
L 258.53019 -105.058103 
L 259.677379 -105.577219 
L 260.824568 -106.320264 
L 261.971757 -106.582206 
L 263.118946 -107.03923 
L 264.266136 -107.377618 
L 265.413325 -107.714425 
L 266.560514 -108.053431 
L 267.707703 -108.389817 
L 268.854892 -108.673702 
L 270.002082 -109.279975 
L 271.149271 -109.498875 
L 272.29646 -109.774811 
L 273.443649 -110.257668 
L 274.590838 -110.704576 
L 275.738028 -111.318135 
L 276.885217 -111.639143 
L 278.032406 -111.724766 
L 279.179595 -112.051554 
L 280.326784 -112.280146 
L 281.473974 -112.36769 
L 282.621163 -112.726207 
L 283.768352 -112.701925 
L 284.915541 -113.193449 
L 286.06273 -113.749568 
L 287.20992 -114.038465 
L 288.357109 -114.885991 
L 289.504298 -114.881071 
L 290.651487 -115.517356 
L 291.798677 -115.978128 
L 292.945866 -116.355362 
L 294.093055 -116.572347 
L 295.240244 -117.159993 
L 296.387433 -117.479827 
L 297.534623 -117.973617 
L 298.681812 -118.311142 
L 299.829001 -118.619199 
L 300.97619 -118.738175 
L 302.123379 -119.086948 
L 303.270569 -119.19596 
L 304.417758 -119.462202 
L 305.564947 -119.760138 
L 306.712136 -120.023017 
L 307.859325 -120.496162 
L 309.006515 -120.731077 
L 310.153704 -120.90686 
L 311.300893 -121.507432 
L 312.448082 -121.834858 
L 313.595271 -122.316136 
L 314.742461 -122.666803 
L 315.88965 -123.014345 
L 317.036839 -123.222206 
L 318.184028 -123.547466 
L 319.331217 -123.680523 
L 320.478407 -124.064134 
L 321.625596 -123.93425 
L 322.772785 -124.092162 
L 323.919974 -124.418971 
L 325.067164 -124.54299 
L 326.214353 -124.376897 
L 327.361542 -124.705651 
L 328.508731 -125.209179 
L 329.65592 -125.335015 
L 330.80311 -125.860688 
L 331.950299 -125.93725 
L 333.097488 -125.864744 
L 334.244677 -126.27737 
L 335.391866 -126.505784 
L 336.539056 -127.007163 
L 337.686245 -127.43417 
L 338.833434 -127.888967 
L 339.980623 -128.388759 
L 341.127812 -129.229098 
L 342.275002 -129.064559 
L 343.422191 -129.140873 
L 344.56938 -129.24189 
L 345.716569 -130.154132 
L 346.863758 -130.675098 
L 346.863758 -132.501786 
L 346.863758 -132.501786 
L 345.716569 -132.100806 
L 344.56938 -131.361484 
L 343.422191 -131.059315 
L 342.275002 -131.628364 
L 341.127812 -131.250101 
L 339.980623 -131.045199 
L 338.833434 -129.932688 
L 337.686245 -129.611992 
L 336.539056 -129.236376 
L 335.391866 -129.117229 
L 334.244677 -128.651139 
L 333.097488 -128.485718 
L 331.950299 -129.204836 
L 330.80311 -129.144711 
L 329.65592 -128.720824 
L 328.508731 -128.630642 
L 327.361542 -127.916058 
L 326.214353 -127.543482 
L 325.067164 -128.727085 
L 323.919974 -128.639908 
L 322.772785 -128.419458 
L 321.625596 -128.118912 
L 320.478407 -127.539048 
L 319.331217 -127.305521 
L 318.184028 -126.710439 
L 317.036839 -126.240873 
L 315.88965 -125.809008 
L 314.742461 -125.535333 
L 313.595271 -125.274227 
L 312.448082 -124.995761 
L 311.300893 -124.652824 
L 310.153704 -124.223042 
L 309.006515 -123.934307 
L 307.859325 -123.62425 
L 306.712136 -123.395244 
L 305.564947 -122.90112 
L 304.417758 -122.613058 
L 303.270569 -122.169139 
L 302.123379 -122.28529 
L 300.97619 -121.814416 
L 299.829001 -121.722945 
L 298.681812 -121.429889 
L 297.534623 -120.939853 
L 296.387433 -120.369199 
L 295.240244 -120.187569 
L 294.093055 -119.557281 
L 292.945866 -119.284911 
L 291.798677 -118.679456 
L 290.651487 -118.065767 
L 289.504298 -117.857367 
L 288.357109 -117.617834 
L 287.20992 -117.014544 
L 286.06273 -116.532676 
L 284.915541 -116.218644 
L 283.768352 -115.908533 
L 282.621163 -115.90871 
L 281.473974 -115.64174 
L 280.326784 -115.510934 
L 279.179595 -115.090044 
L 278.032406 -114.651934 
L 276.885217 -114.319024 
L 275.738028 -113.943945 
L 274.590838 -113.365441 
L 273.443649 -112.69988 
L 272.29646 -112.332005 
L 271.149271 -112.064318 
L 270.002082 -111.686524 
L 268.854892 -111.313133 
L 267.707703 -111.086055 
L 266.560514 -110.723335 
L 265.413325 -110.170223 
L 264.266136 -109.889425 
L 263.118946 -109.732603 
L 261.971757 -109.339646 
L 260.824568 -109.034757 
L 259.677379 -108.883472 
L 258.53019 -108.467472 
L 257.383 -108.206227 
L 256.235811 -107.897099 
L 255.088622 -107.497867 
L 253.941433 -107.347099 
L 252.794243 -106.894506 
L 251.647054 -106.417572 
L 250.499865 -105.980576 
L 249.352676 -105.671808 
L 248.205487 -105.724711 
L 247.058297 -105.422954 
L 245.911108 -104.755983 
L 244.763919 -104.013277 
L 243.61673 -103.846293 
L 242.469541 -103.4576 
L 241.322351 -103.284586 
L 240.175162 -102.8292 
L 239.027973 -102.620913 
L 237.880784 -102.461821 
L 236.733595 -101.766715 
L 235.586405 -101.513318 
L 234.439216 -101.074694 
L 233.292027 -100.917363 
L 232.144838 -100.572239 
L 230.997649 -100.05351 
L 229.850459 -99.812369 
L 228.70327 -99.494177 
L 227.556081 -99.278481 
L 226.408892 -98.925769 
L 225.261703 -98.489597 
L 224.114513 -98.260396 
L 222.967324 -97.75864 
L 221.820135 -97.258038 
L 220.672946 -97.208519 
L 219.525757 -96.671406 
L 218.378567 -96.6132 
L 217.231378 -96.191598 
L 216.084189 -95.757025 
L 214.937 -95.53479 
L 213.78981 -95.469555 
L 212.642621 -95.090508 
L 211.495432 -94.642563 
L 210.348243 -94.162154 
L 209.201054 -93.788167 
L 208.053864 -93.383593 
L 206.906675 -93.097763 
L 205.759486 -92.941518 
L 204.612297 -92.275552 
L 203.465108 -92.008002 
L 202.317918 -91.522643 
L 201.170729 -91.219777 
L 200.02354 -90.634416 
L 198.876351 -90.226988 
L 197.729162 -90.154341 
L 196.581972 -89.774172 
L 195.434783 -89.587029 
L 194.287594 -89.256818 
L 193.140405 -89.080357 
L 191.993216 -88.570557 
L 190.846026 -88.376484 
L 189.698837 -87.63475 
L 188.551648 -87.262153 
L 187.404459 -87.180837 
L 186.25727 -86.698577 
L 185.11008 -86.372068 
L 183.962891 -86.093205 
L 182.815702 -85.933065 
L 181.668513 -85.547328 
L 180.521323 -85.398066 
L 179.374134 -84.893688 
L 178.226945 -84.710439 
L 177.079756 -84.197132 
L 175.932567 -83.743175 
L 174.785377 -83.33833 
L 173.638188 -83.243719 
L 172.490999 -82.96082 
L 171.34381 -82.684397 
L 170.196621 -82.239361 
L 169.049431 -81.793819 
L 167.902242 -81.554514 
L 166.755053 -81.370151 
L 165.607864 -80.885607 
L 164.460675 -80.631045 
L 163.313485 -80.250159 
L 162.166296 -80.128687 
L 161.019107 -79.543989 
L 159.871918 -79.090833 
L 158.724729 -78.798509 
L 157.577539 -78.433015 
L 156.43035 -77.782647 
L 155.283161 -77.62518 
L 154.135972 -77.171948 
L 152.988783 -77.024091 
L 151.841593 -76.832939 
L 150.694404 -76.487644 
L 149.547215 -75.936364 
L 148.400026 -75.637731 
L 147.252836 -75.072326 
L 146.105647 -74.910009 
L 144.958458 -74.371772 
L 143.811269 -74.113632 
L 142.66408 -73.669027 
L 141.51689 -73.427709 
L 140.369701 -73.360148 
L 139.222512 -72.816693 
L 138.075323 -72.103929 
L 136.928134 -71.917418 
L 135.780944 -71.55263 
L 134.633755 -70.786615 
L 133.486566 -70.265692 
L 132.339377 -69.983859 
L 131.192188 -69.548621 
L 130.044998 -69.37155 
L 128.897809 -69.220013 
L 127.75062 -68.694421 
L 126.603431 -68.021612 
L 125.456242 -67.823047 
L 124.309052 -67.506771 
L 123.161863 -67.071774 
L 122.014674 -66.680055 
L 120.867485 -66.219671 
L 119.720296 -65.759133 
L 118.573106 -65.535499 
L 117.425917 -64.9644 
L 116.278728 -64.676735 
L 115.131539 -64.557208 
L 113.98435 -64.473887 
L 112.83716 -63.966707 
L 111.689971 -63.592837 
L 110.542782 -63.093366 
L 109.395593 -63.002153 
L 108.248403 -63.023196 
L 107.101214 -62.748759 
L 105.954025 -62.456842 
L 104.806836 -62.171568 
L 103.659647 -61.528265 
L 102.512457 -61.222061 
L 101.365268 -60.876613 
L 100.218079 -60.559192 
L 99.07089 -60.174285 
L 97.923701 -59.441718 
L 96.776511 -59.227 
L 95.629322 -58.706991 
L 94.482133 -58.513991 
L 93.334944 -58.353195 
L 92.187755 -58.062372 
L 91.040565 -57.537125 
L 89.893376 -57.079356 
L 88.746187 -56.64814 
L 87.598998 -56.145177 
L 86.451809 -55.757735 
L 85.304619 -55.12872 
L 84.15743 -54.861138 
L 83.010241 -54.330751 
L 81.863052 -53.975777 
L 80.715863 -53.457263 
L 79.568673 -52.854549 
L 78.421484 -52.517079 
L 77.274295 -52.081885 
L 76.127106 -51.248731 
L 74.979916 -50.831142 
L 73.832727 -50.126116 
z
" style="stroke: #2ca02c; stroke-opacity: 0.2"/>
    </defs>
    <g clip-path="url(#pbac0b5a141)">
     <use xlink:href="#m035bc6332d" x="0" y="345.6" style="fill: #2ca02c; fill-opacity: 0.2; stroke: #2ca02c; stroke-opacity: 0.2"/>
    </g>
   </g>
   <g id="PolyCollection_4">
    <defs>
     <path id="m8b041dab7c" d="M 73.832727 -50.464898 
L 73.832727 -50.464898 
L 74.979916 -52.328086 
L 76.127106 -57.920208 
L 77.274295 -61.264957 
L 78.421484 -65.54533 
L 79.568673 -70.267017 
L 80.715863 -75.75335 
L 81.863052 -77.69402 
L 83.010241 -86.117171 
L 84.15743 -87.945366 
L 85.304619 -91.353815 
L 86.451809 -93.828483 
L 87.598998 -96.310157 
L 88.746187 -97.49358 
L 89.893376 -102.476666 
L 91.040565 -103.220016 
L 92.187755 -105.838257 
L 93.334944 -108.691202 
L 94.482133 -110.394785 
L 95.629322 -114.335865 
L 96.776511 -119.006708 
L 97.923701 -122.254759 
L 99.07089 -124.784548 
L 100.218079 -127.144833 
L 101.365268 -134.349008 
L 102.512457 -136.818817 
L 103.659647 -135.787956 
L 104.806836 -138.998659 
L 105.954025 -139.226449 
L 107.101214 -141.940392 
L 108.248403 -150.470489 
L 109.395593 -149.703977 
L 110.542782 -152.784202 
L 111.689971 -151.856433 
L 112.83716 -152.221862 
L 113.98435 -155.16247 
L 115.131539 -155.901884 
L 116.278728 -155.649572 
L 117.425917 -154.496903 
L 118.573106 -159.595468 
L 119.720296 -166.09152 
L 120.867485 -168.054297 
L 122.014674 -170.443272 
L 123.161863 -170.411095 
L 124.309052 -178.04103 
L 125.456242 -177.864381 
L 126.603431 -176.884079 
L 127.75062 -179.446296 
L 128.897809 -178.673505 
L 130.044998 -182.455464 
L 131.192188 -178.081595 
L 132.339377 -178.137668 
L 133.486566 -176.217071 
L 134.633755 -175.995682 
L 135.780944 -178.333361 
L 136.928134 -182.547085 
L 138.075323 -183.71735 
L 139.222512 -185.120981 
L 140.369701 -185.298735 
L 141.51689 -183.182984 
L 142.66408 -186.753733 
L 143.811269 -183.860546 
L 144.958458 -186.490451 
L 146.105647 -188.152062 
L 147.252836 -188.899073 
L 148.400026 -191.7885 
L 149.547215 -193.426957 
L 150.694404 -194.24207 
L 151.841593 -196.982834 
L 152.988783 -200.450554 
L 154.135972 -202.911902 
L 155.283161 -201.011089 
L 156.43035 -206.291553 
L 157.577539 -210.297624 
L 158.724729 -208.855369 
L 159.871918 -207.691187 
L 161.019107 -204.900164 
L 162.166296 -201.052511 
L 163.313485 -202.65121 
L 164.460675 -204.202284 
L 165.607864 -200.210445 
L 166.755053 -196.162405 
L 167.902242 -195.328815 
L 169.049431 -195.48977 
L 170.196621 -197.10726 
L 171.34381 -193.054255 
L 172.490999 -194.740427 
L 173.638188 -192.670962 
L 174.785377 -200.628797 
L 175.932567 -200.929165 
L 177.079756 -200.770537 
L 178.226945 -202.631419 
L 179.374134 -201.325759 
L 180.521323 -203.703716 
L 181.668513 -203.37661 
L 182.815702 -198.567206 
L 183.962891 -194.970101 
L 185.11008 -198.482397 
L 186.25727 -199.293015 
L 187.404459 -192.957062 
L 188.551648 -189.967351 
L 189.698837 -188.157572 
L 190.846026 -191.343167 
L 191.993216 -193.452574 
L 193.140405 -193.182856 
L 194.287594 -190.485339 
L 195.434783 -192.078948 
L 196.581972 -188.998157 
L 197.729162 -189.899887 
L 198.876351 -191.85714 
L 200.02354 -197.656537 
L 201.170729 -200.136999 
L 202.317918 -195.689173 
L 203.465108 -198.46335 
L 204.612297 -197.108871 
L 205.759486 -200.060399 
L 206.906675 -199.006247 
L 208.053864 -201.57168 
L 209.201054 -196.945383 
L 210.348243 -196.234527 
L 211.495432 -197.895164 
L 212.642621 -198.722669 
L 213.78981 -199.168794 
L 214.937 -200.838358 
L 216.084189 -202.527003 
L 217.231378 -200.903675 
L 218.378567 -205.016611 
L 219.525757 -202.381799 
L 220.672946 -204.347584 
L 221.820135 -210.754218 
L 222.967324 -210.198277 
L 224.114513 -212.693442 
L 225.261703 -216.168991 
L 226.408892 -217.332297 
L 227.556081 -211.552073 
L 228.70327 -211.100137 
L 229.850459 -213.326067 
L 230.997649 -212.83531 
L 232.144838 -209.416189 
L 233.292027 -208.89799 
L 234.439216 -204.555685 
L 235.586405 -208.783119 
L 236.733595 -206.814739 
L 237.880784 -209.396248 
L 239.027973 -212.938133 
L 240.175162 -207.33355 
L 241.322351 -210.359409 
L 242.469541 -205.820073 
L 243.61673 -207.884616 
L 244.763919 -208.708354 
L 245.911108 -210.788519 
L 247.058297 -211.376974 
L 248.205487 -210.315766 
L 249.352676 -208.170876 
L 250.499865 -204.558529 
L 251.647054 -202.187714 
L 252.794243 -202.657092 
L 253.941433 -206.377267 
L 255.088622 -208.388197 
L 256.235811 -209.685604 
L 257.383 -209.905329 
L 258.53019 -212.463398 
L 259.677379 -212.165064 
L 260.824568 -212.134686 
L 261.971757 -213.11146 
L 263.118946 -213.844969 
L 264.266136 -216.591463 
L 265.413325 -213.564516 
L 266.560514 -214.749939 
L 267.707703 -213.16594 
L 268.854892 -218.569945 
L 270.002082 -219.127901 
L 271.149271 -221.981981 
L 272.29646 -222.978078 
L 273.443649 -226.188669 
L 274.590838 -231.736626 
L 275.738028 -230.023499 
L 276.885217 -231.492525 
L 278.032406 -234.993707 
L 279.179595 -235.162188 
L 280.326784 -233.950757 
L 281.473974 -233.514904 
L 282.621163 -231.421265 
L 283.768352 -230.430359 
L 284.915541 -235.22338 
L 286.06273 -232.182502 
L 287.20992 -234.272553 
L 288.357109 -231.953656 
L 289.504298 -227.85964 
L 290.651487 -221.625746 
L 291.798677 -226.414134 
L 292.945866 -225.55787 
L 294.093055 -223.889163 
L 295.240244 -224.895101 
L 296.387433 -227.122472 
L 297.534623 -224.528589 
L 298.681812 -227.99714 
L 299.829001 -235.631967 
L 300.97619 -238.045101 
L 302.123379 -236.801446 
L 303.270569 -233.191792 
L 304.417758 -232.647485 
L 305.564947 -231.436644 
L 306.712136 -229.942261 
L 307.859325 -229.463467 
L 309.006515 -229.85267 
L 310.153704 -222.914055 
L 311.300893 -226.139577 
L 312.448082 -228.027401 
L 313.595271 -228.148774 
L 314.742461 -231.842865 
L 315.88965 -232.652619 
L 317.036839 -227.120292 
L 318.184028 -230.854261 
L 319.331217 -230.33989 
L 320.478407 -233.522384 
L 321.625596 -233.97814 
L 322.772785 -236.393982 
L 323.919974 -231.864919 
L 325.067164 -230.419793 
L 326.214353 -231.200916 
L 327.361542 -234.738927 
L 328.508731 -236.010481 
L 329.65592 -235.875937 
L 330.80311 -232.004039 
L 331.950299 -234.173937 
L 333.097488 -227.345933 
L 334.244677 -232.96648 
L 335.391866 -237.159304 
L 336.539056 -233.952589 
L 337.686245 -239.773312 
L 338.833434 -240.541749 
L 339.980623 -236.652517 
L 341.127812 -235.838303 
L 342.275002 -233.435924 
L 343.422191 -226.816174 
L 344.56938 -222.380863 
L 345.716569 -212.153635 
L 346.863758 -218.672324 
L 348.010948 -203.299753 
L 349.158137 -202.177097 
L 350.305326 -209.257555 
L 351.452515 -206.525683 
L 352.599704 -214.828492 
L 353.746894 -215.546198 
L 354.894083 -216.367127 
L 354.894083 -280.708825 
L 354.894083 -280.708825 
L 353.746894 -280.481647 
L 352.599704 -277.225721 
L 351.452515 -292.032 
L 350.305326 -269.75531 
L 349.158137 -258.453309 
L 348.010948 -258.335088 
L 346.863758 -279.719056 
L 345.716569 -259.207959 
L 344.56938 -256.018047 
L 343.422191 -260.851516 
L 342.275002 -266.103403 
L 341.127812 -271.262626 
L 339.980623 -271.935191 
L 338.833434 -273.103416 
L 337.686245 -275.468877 
L 336.539056 -275.797954 
L 335.391866 -273.885835 
L 334.244677 -275.629445 
L 333.097488 -274.615211 
L 331.950299 -271.784312 
L 330.80311 -262.169524 
L 329.65592 -265.854724 
L 328.508731 -264.437386 
L 327.361542 -266.288631 
L 326.214353 -270.125634 
L 325.067164 -271.760861 
L 323.919974 -276.112037 
L 322.772785 -281.652372 
L 321.625596 -273.276432 
L 320.478407 -271.806387 
L 319.331217 -265.056573 
L 318.184028 -267.177213 
L 317.036839 -259.210247 
L 315.88965 -257.62281 
L 314.742461 -256.885614 
L 313.595271 -252.020251 
L 312.448082 -250.161622 
L 311.300893 -249.181602 
L 310.153704 -244.596749 
L 309.006515 -254.192955 
L 307.859325 -260.14214 
L 306.712136 -261.961125 
L 305.564947 -263.320181 
L 304.417758 -257.847042 
L 303.270569 -258.304627 
L 302.123379 -261.046309 
L 300.97619 -260.118252 
L 299.829001 -254.513594 
L 298.681812 -252.116775 
L 297.534623 -254.138787 
L 296.387433 -257.483946 
L 295.240244 -258.381938 
L 294.093055 -257.296697 
L 292.945866 -255.066145 
L 291.798677 -254.883117 
L 290.651487 -253.486222 
L 289.504298 -267.651892 
L 288.357109 -270.04021 
L 287.20992 -274.01036 
L 286.06273 -274.162297 
L 284.915541 -277.052756 
L 283.768352 -272.647219 
L 282.621163 -273.601858 
L 281.473974 -277.447045 
L 280.326784 -275.730502 
L 279.179595 -273.687236 
L 278.032406 -270.18124 
L 276.885217 -267.950903 
L 275.738028 -270.240803 
L 274.590838 -270.780584 
L 273.443649 -263.19261 
L 272.29646 -262.19563 
L 271.149271 -260.934826 
L 270.002082 -257.992589 
L 268.854892 -255.696858 
L 267.707703 -253.98738 
L 266.560514 -254.408515 
L 265.413325 -259.82177 
L 264.266136 -255.197251 
L 263.118946 -253.742285 
L 261.971757 -253.390053 
L 260.824568 -256.43633 
L 259.677379 -253.374135 
L 258.53019 -254.065524 
L 257.383 -251.889861 
L 256.235811 -247.941978 
L 255.088622 -247.972532 
L 253.941433 -248.868433 
L 252.794243 -249.00881 
L 251.647054 -244.843451 
L 250.499865 -245.331578 
L 249.352676 -245.706083 
L 248.205487 -242.472391 
L 247.058297 -244.304912 
L 245.911108 -246.88826 
L 244.763919 -241.094865 
L 243.61673 -242.000634 
L 242.469541 -242.8725 
L 241.322351 -242.696452 
L 240.175162 -242.121146 
L 239.027973 -247.631407 
L 237.880784 -248.238341 
L 236.733595 -243.981191 
L 235.586405 -244.403787 
L 234.439216 -240.743627 
L 233.292027 -240.47371 
L 232.144838 -245.669044 
L 230.997649 -252.798744 
L 229.850459 -255.557959 
L 228.70327 -253.009293 
L 227.556081 -248.469117 
L 226.408892 -249.957968 
L 225.261703 -251.94758 
L 224.114513 -250.951866 
L 222.967324 -248.963879 
L 221.820135 -249.124399 
L 220.672946 -245.865862 
L 219.525757 -241.752748 
L 218.378567 -243.38796 
L 217.231378 -240.073249 
L 216.084189 -243.700564 
L 214.937 -237.911267 
L 213.78981 -236.623342 
L 212.642621 -236.226342 
L 211.495432 -231.719152 
L 210.348243 -226.902403 
L 209.201054 -221.541118 
L 208.053864 -226.008723 
L 206.906675 -222.528448 
L 205.759486 -227.332563 
L 204.612297 -227.506237 
L 203.465108 -224.353023 
L 202.317918 -222.628492 
L 201.170729 -222.095268 
L 200.02354 -221.162157 
L 198.876351 -221.318937 
L 197.729162 -215.630254 
L 196.581972 -211.599479 
L 195.434783 -214.791355 
L 194.287594 -213.289732 
L 193.140405 -217.934917 
L 191.993216 -217.857756 
L 190.846026 -221.38048 
L 189.698837 -220.963362 
L 188.551648 -229.709333 
L 187.404459 -232.854804 
L 186.25727 -237.07663 
L 185.11008 -236.898658 
L 183.962891 -235.357524 
L 182.815702 -233.693645 
L 181.668513 -230.783033 
L 180.521323 -236.114948 
L 179.374134 -228.428111 
L 178.226945 -221.215844 
L 177.079756 -225.711929 
L 175.932567 -228.066806 
L 174.785377 -224.442893 
L 173.638188 -227.613604 
L 172.490999 -226.658042 
L 171.34381 -224.271597 
L 170.196621 -228.575232 
L 169.049431 -223.840024 
L 167.902242 -222.663226 
L 166.755053 -223.703199 
L 165.607864 -230.634404 
L 164.460675 -228.90548 
L 163.313485 -231.465618 
L 162.166296 -232.171659 
L 161.019107 -233.255748 
L 159.871918 -233.714152 
L 158.724729 -236.195402 
L 157.577539 -233.157611 
L 156.43035 -232.692721 
L 155.283161 -225.158287 
L 154.135972 -231.036909 
L 152.988783 -230.834727 
L 151.841593 -229.636818 
L 150.694404 -222.636195 
L 149.547215 -218.020509 
L 148.400026 -222.396575 
L 147.252836 -218.114145 
L 146.105647 -216.872913 
L 144.958458 -211.319511 
L 143.811269 -214.87724 
L 142.66408 -217.654745 
L 141.51689 -218.015873 
L 140.369701 -219.780482 
L 139.222512 -218.685868 
L 138.075323 -217.743514 
L 136.928134 -214.41942 
L 135.780944 -211.062984 
L 134.633755 -205.447753 
L 133.486566 -202.575912 
L 132.339377 -205.87297 
L 131.192188 -196.810749 
L 130.044998 -201.453273 
L 128.897809 -193.474345 
L 127.75062 -194.244337 
L 126.603431 -196.407395 
L 125.456242 -196.894664 
L 124.309052 -193.817604 
L 123.161863 -190.721111 
L 122.014674 -188.137553 
L 120.867485 -188.540145 
L 119.720296 -187.318453 
L 118.573106 -182.113983 
L 117.425917 -174.93765 
L 116.278728 -175.070114 
L 115.131539 -176.771725 
L 113.98435 -177.839786 
L 112.83716 -171.21009 
L 111.689971 -170.67849 
L 110.542782 -172.109402 
L 109.395593 -168.350506 
L 108.248403 -166.014838 
L 107.101214 -159.562679 
L 105.954025 -155.879238 
L 104.806836 -155.581283 
L 103.659647 -152.304585 
L 102.512457 -153.358805 
L 101.365268 -154.115187 
L 100.218079 -149.660655 
L 99.07089 -146.426539 
L 97.923701 -143.889368 
L 96.776511 -139.140759 
L 95.629322 -137.511644 
L 94.482133 -132.264564 
L 93.334944 -129.86745 
L 92.187755 -125.781855 
L 91.040565 -122.917176 
L 89.893376 -123.218311 
L 88.746187 -117.86752 
L 87.598998 -115.227334 
L 86.451809 -113.215179 
L 85.304619 -104.448745 
L 84.15743 -102.020009 
L 83.010241 -99.481921 
L 81.863052 -92.568207 
L 80.715863 -88.947981 
L 79.568673 -81.929155 
L 78.421484 -78.642067 
L 77.274295 -72.31509 
L 76.127106 -68.604937 
L 74.979916 -58.773681 
L 73.832727 -50.464898 
z
" style="stroke: #d62728; stroke-opacity: 0.2"/>
    </defs>
    <g clip-path="url(#pbac0b5a141)">
     <use xlink:href="#m8b041dab7c" x="0" y="345.6" style="fill: #d62728; fill-opacity: 0.2; stroke: #d62728; stroke-opacity: 0.2"/>
    </g>
   </g>
   <g id="matplotlib.axis_1">
    <g id="xtick_1">
     <g id="line2d_1">
      <defs>
       <path id="m98cd9c535e" d="M 0 0 
L 0 3.5 
" style="stroke: #000000; stroke-width: 0.8"/>
      </defs>
      <g>
       <use xlink:href="#m98cd9c535e" x="72.685538" y="307.584" style="stroke: #000000; stroke-width: 0.8"/>
      </g>
     </g>
     <g id="text_1">
      <!-- 0 -->
      <g transform="translate(69.504288 322.182437)scale(0.1 -0.1)">
       <defs>
        <path id="DejaVuSans-30" d="M 2034 4250 
Q 1547 4250 1301 3770 
Q 1056 3291 1056 2328 
Q 1056 1369 1301 889 
Q 1547 409 2034 409 
Q 2525 409 2770 889 
Q 3016 1369 3016 2328 
Q 3016 3291 2770 3770 
Q 2525 4250 2034 4250 
z
M 2034 4750 
Q 2819 4750 3233 4129 
Q 3647 3509 3647 2328 
Q 3647 1150 3233 529 
Q 2819 -91 2034 -91 
Q 1250 -91 836 529 
Q 422 1150 422 2328 
Q 422 3509 836 4129 
Q 1250 4750 2034 4750 
z
" transform="scale(0.015625)"/>
       </defs>
       <use xlink:href="#DejaVuSans-30"/>
      </g>
     </g>
    </g>
    <g id="xtick_2">
     <g id="line2d_2">
      <g>
       <use xlink:href="#m98cd9c535e" x="130.044998" y="307.584" style="stroke: #000000; stroke-width: 0.8"/>
      </g>
     </g>
     <g id="text_2">
      <!-- 50 -->
      <g transform="translate(123.682498 322.182437)scale(0.1 -0.1)">
       <defs>
        <path id="DejaVuSans-35" d="M 691 4666 
L 3169 4666 
L 3169 4134 
L 1269 4134 
L 1269 2991 
Q 1406 3038 1543 3061 
Q 1681 3084 1819 3084 
Q 2600 3084 3056 2656 
Q 3513 2228 3513 1497 
Q 3513 744 3044 326 
Q 2575 -91 1722 -91 
Q 1428 -91 1123 -41 
Q 819 9 494 109 
L 494 744 
Q 775 591 1075 516 
Q 1375 441 1709 441 
Q 2250 441 2565 725 
Q 2881 1009 2881 1497 
Q 2881 1984 2565 2268 
Q 2250 2553 1709 2553 
Q 1456 2553 1204 2497 
Q 953 2441 691 2322 
L 691 4666 
z
" transform="scale(0.015625)"/>
       </defs>
       <use xlink:href="#DejaVuSans-35"/>
       <use xlink:href="#DejaVuSans-30" x="63.623047"/>
      </g>
     </g>
    </g>
    <g id="xtick_3">
     <g id="line2d_3">
      <g>
       <use xlink:href="#m98cd9c535e" x="187.404459" y="307.584" style="stroke: #000000; stroke-width: 0.8"/>
      </g>
     </g>
     <g id="text_3">
      <!-- 100 -->
      <g transform="translate(177.860709 322.182437)scale(0.1 -0.1)">
       <defs>
        <path id="DejaVuSans-31" d="M 794 531 
L 1825 531 
L 1825 4091 
L 703 3866 
L 703 4441 
L 1819 4666 
L 2450 4666 
L 2450 531 
L 3481 531 
L 3481 0 
L 794 0 
L 794 531 
z
" transform="scale(0.015625)"/>
       </defs>
       <use xlink:href="#DejaVuSans-31"/>
       <use xlink:href="#DejaVuSans-30" x="63.623047"/>
       <use xlink:href="#DejaVuSans-30" x="127.246094"/>
      </g>
     </g>
    </g>
    <g id="xtick_4">
     <g id="line2d_4">
      <g>
       <use xlink:href="#m98cd9c535e" x="244.763919" y="307.584" style="stroke: #000000; stroke-width: 0.8"/>
      </g>
     </g>
     <g id="text_4">
      <!-- 150 -->
      <g transform="translate(235.220169 322.182437)scale(0.1 -0.1)">
       <use xlink:href="#DejaVuSans-31"/>
       <use xlink:href="#DejaVuSans-35" x="63.623047"/>
       <use xlink:href="#DejaVuSans-30" x="127.246094"/>
      </g>
     </g>
    </g>
    <g id="xtick_5">
     <g id="line2d_5">
      <g>
       <use xlink:href="#m98cd9c535e" x="302.123379" y="307.584" style="stroke: #000000; stroke-width: 0.8"/>
      </g>
     </g>
     <g id="text_5">
      <!-- 200 -->
      <g transform="translate(292.579629 322.182437)scale(0.1 -0.1)">
       <defs>
        <path id="DejaVuSans-32" d="M 1228 531 
L 3431 531 
L 3431 0 
L 469 0 
L 469 531 
Q 828 903 1448 1529 
Q 2069 2156 2228 2338 
Q 2531 2678 2651 2914 
Q 2772 3150 2772 3378 
Q 2772 3750 2511 3984 
Q 2250 4219 1831 4219 
Q 1534 4219 1204 4116 
Q 875 4013 500 3803 
L 500 4441 
Q 881 4594 1212 4672 
Q 1544 4750 1819 4750 
Q 2544 4750 2975 4387 
Q 3406 4025 3406 3419 
Q 3406 3131 3298 2873 
Q 3191 2616 2906 2266 
Q 2828 2175 2409 1742 
Q 1991 1309 1228 531 
z
" transform="scale(0.015625)"/>
       </defs>
       <use xlink:href="#DejaVuSans-32"/>
       <use xlink:href="#DejaVuSans-30" x="63.623047"/>
       <use xlink:href="#DejaVuSans-30" x="127.246094"/>
      </g>
     </g>
    </g>
    <g id="xtick_6">
     <g id="line2d_6">
      <g>
       <use xlink:href="#m98cd9c535e" x="359.48284" y="307.584" style="stroke: #000000; stroke-width: 0.8"/>
      </g>
     </g>
     <g id="text_6">
      <!-- 250 -->
      <g transform="translate(349.93909 322.182437)scale(0.1 -0.1)">
       <use xlink:href="#DejaVuSans-32"/>
       <use xlink:href="#DejaVuSans-35" x="63.623047"/>
       <use xlink:href="#DejaVuSans-30" x="127.246094"/>
      </g>
     </g>
    </g>
    <g id="text_7">
     <!-- Events -->
     <g transform="translate(219.231094 335.860562)scale(0.1 -0.1)">
      <defs>
       <path id="DejaVuSans-45" d="M 628 4666 
L 3578 4666 
L 3578 4134 
L 1259 4134 
L 1259 2753 
L 3481 2753 
L 3481 2222 
L 1259 2222 
L 1259 531 
L 3634 531 
L 3634 0 
L 628 0 
L 628 4666 
z
" transform="scale(0.015625)"/>
       <path id="DejaVuSans-76" d="M 191 3500 
L 800 3500 
L 1894 563 
L 2988 3500 
L 3597 3500 
L 2284 0 
L 1503 0 
L 191 3500 
z
" transform="scale(0.015625)"/>
       <path id="DejaVuSans-65" d="M 3597 1894 
L 3597 1613 
L 953 1613 
Q 991 1019 1311 708 
Q 1631 397 2203 397 
Q 2534 397 2845 478 
Q 3156 559 3463 722 
L 3463 178 
Q 3153 47 2828 -22 
Q 2503 -91 2169 -91 
Q 1331 -91 842 396 
Q 353 884 353 1716 
Q 353 2575 817 3079 
Q 1281 3584 2069 3584 
Q 2775 3584 3186 3129 
Q 3597 2675 3597 1894 
z
M 3022 2063 
Q 3016 2534 2758 2815 
Q 2500 3097 2075 3097 
Q 1594 3097 1305 2825 
Q 1016 2553 972 2059 
L 3022 2063 
z
" transform="scale(0.015625)"/>
       <path id="DejaVuSans-6e" d="M 3513 2113 
L 3513 0 
L 2938 0 
L 2938 2094 
Q 2938 2591 2744 2837 
Q 2550 3084 2163 3084 
Q 1697 3084 1428 2787 
Q 1159 2491 1159 1978 
L 1159 0 
L 581 0 
L 581 3500 
L 1159 3500 
L 1159 2956 
Q 1366 3272 1645 3428 
Q 1925 3584 2291 3584 
Q 2894 3584 3203 3211 
Q 3513 2838 3513 2113 
z
" transform="scale(0.015625)"/>
       <path id="DejaVuSans-74" d="M 1172 4494 
L 1172 3500 
L 2356 3500 
L 2356 3053 
L 1172 3053 
L 1172 1153 
Q 1172 725 1289 603 
Q 1406 481 1766 481 
L 2356 481 
L 2356 0 
L 1766 0 
Q 1100 0 847 248 
Q 594 497 594 1153 
L 594 3053 
L 172 3053 
L 172 3500 
L 594 3500 
L 594 4494 
L 1172 4494 
z
" transform="scale(0.015625)"/>
       <path id="DejaVuSans-73" d="M 2834 3397 
L 2834 2853 
Q 2591 2978 2328 3040 
Q 2066 3103 1784 3103 
Q 1356 3103 1142 2972 
Q 928 2841 928 2578 
Q 928 2378 1081 2264 
Q 1234 2150 1697 2047 
L 1894 2003 
Q 2506 1872 2764 1633 
Q 3022 1394 3022 966 
Q 3022 478 2636 193 
Q 2250 -91 1575 -91 
Q 1294 -91 989 -36 
Q 684 19 347 128 
L 347 722 
Q 666 556 975 473 
Q 1284 391 1588 391 
Q 1994 391 2212 530 
Q 2431 669 2431 922 
Q 2431 1156 2273 1281 
Q 2116 1406 1581 1522 
L 1381 1569 
Q 847 1681 609 1914 
Q 372 2147 372 2553 
Q 372 3047 722 3315 
Q 1072 3584 1716 3584 
Q 2034 3584 2315 3537 
Q 2597 3491 2834 3397 
z
" transform="scale(0.015625)"/>
      </defs>
      <use xlink:href="#DejaVuSans-45"/>
      <use xlink:href="#DejaVuSans-76" x="63.183594"/>
      <use xlink:href="#DejaVuSans-65" x="122.363281"/>
      <use xlink:href="#DejaVuSans-6e" x="183.886719"/>
      <use xlink:href="#DejaVuSans-74" x="247.265625"/>
      <use xlink:href="#DejaVuSans-73" x="286.474609"/>
     </g>
    </g>
   </g>
   <g id="matplotlib.axis_2">
    <g id="ytick_1">
     <g id="line2d_7">
      <defs>
       <path id="mfb5194e875" d="M 0 0 
L -3.5 0 
" style="stroke: #000000; stroke-width: 0.8"/>
      </defs>
      <g>
       <use xlink:href="#mfb5194e875" x="57.6" y="295.490206" style="stroke: #000000; stroke-width: 0.8"/>
      </g>
     </g>
     <g id="text_8">
      <!-- 0 -->
      <g transform="translate(44.2375 299.289424)scale(0.1 -0.1)">
       <use xlink:href="#DejaVuSans-30"/>
      </g>
     </g>
    </g>
    <g id="ytick_2">
     <g id="line2d_8">
      <g>
       <use xlink:href="#mfb5194e875" x="57.6" y="251.377948" style="stroke: #000000; stroke-width: 0.8"/>
      </g>
     </g>
     <g id="text_9">
      <!-- 100000 -->
      <g transform="translate(12.425 255.177167)scale(0.1 -0.1)">
       <use xlink:href="#DejaVuSans-31"/>
       <use xlink:href="#DejaVuSans-30" x="63.623047"/>
       <use xlink:href="#DejaVuSans-30" x="127.246094"/>
       <use xlink:href="#DejaVuSans-30" x="190.869141"/>
       <use xlink:href="#DejaVuSans-30" x="254.492188"/>
       <use xlink:href="#DejaVuSans-30" x="318.115234"/>
      </g>
     </g>
    </g>
    <g id="ytick_3">
     <g id="line2d_9">
      <g>
       <use xlink:href="#mfb5194e875" x="57.6" y="207.265691" style="stroke: #000000; stroke-width: 0.8"/>
      </g>
     </g>
     <g id="text_10">
      <!-- 200000 -->
      <g transform="translate(12.425 211.06491)scale(0.1 -0.1)">
       <use xlink:href="#DejaVuSans-32"/>
       <use xlink:href="#DejaVuSans-30" x="63.623047"/>
       <use xlink:href="#DejaVuSans-30" x="127.246094"/>
       <use xlink:href="#DejaVuSans-30" x="190.869141"/>
       <use xlink:href="#DejaVuSans-30" x="254.492188"/>
       <use xlink:href="#DejaVuSans-30" x="318.115234"/>
      </g>
     </g>
    </g>
    <g id="ytick_4">
     <g id="line2d_10">
      <g>
       <use xlink:href="#mfb5194e875" x="57.6" y="163.153434" style="stroke: #000000; stroke-width: 0.8"/>
      </g>
     </g>
     <g id="text_11">
      <!-- 300000 -->
      <g transform="translate(12.425 166.952653)scale(0.1 -0.1)">
       <defs>
        <path id="DejaVuSans-33" d="M 2597 2516 
Q 3050 2419 3304 2112 
Q 3559 1806 3559 1356 
Q 3559 666 3084 287 
Q 2609 -91 1734 -91 
Q 1441 -91 1130 -33 
Q 819 25 488 141 
L 488 750 
Q 750 597 1062 519 
Q 1375 441 1716 441 
Q 2309 441 2620 675 
Q 2931 909 2931 1356 
Q 2931 1769 2642 2001 
Q 2353 2234 1838 2234 
L 1294 2234 
L 1294 2753 
L 1863 2753 
Q 2328 2753 2575 2939 
Q 2822 3125 2822 3475 
Q 2822 3834 2567 4026 
Q 2313 4219 1838 4219 
Q 1578 4219 1281 4162 
Q 984 4106 628 3988 
L 628 4550 
Q 988 4650 1302 4700 
Q 1616 4750 1894 4750 
Q 2613 4750 3031 4423 
Q 3450 4097 3450 3541 
Q 3450 3153 3228 2886 
Q 3006 2619 2597 2516 
z
" transform="scale(0.015625)"/>
       </defs>
       <use xlink:href="#DejaVuSans-33"/>
       <use xlink:href="#DejaVuSans-30" x="63.623047"/>
       <use xlink:href="#DejaVuSans-30" x="127.246094"/>
       <use xlink:href="#DejaVuSans-30" x="190.869141"/>
       <use xlink:href="#DejaVuSans-30" x="254.492188"/>
       <use xlink:href="#DejaVuSans-30" x="318.115234"/>
      </g>
     </g>
    </g>
    <g id="ytick_5">
     <g id="line2d_11">
      <g>
       <use xlink:href="#mfb5194e875" x="57.6" y="119.041177" style="stroke: #000000; stroke-width: 0.8"/>
      </g>
     </g>
     <g id="text_12">
      <!-- 400000 -->
      <g transform="translate(12.425 122.840395)scale(0.1 -0.1)">
       <defs>
        <path id="DejaVuSans-34" d="M 2419 4116 
L 825 1625 
L 2419 1625 
L 2419 4116 
z
M 2253 4666 
L 3047 4666 
L 3047 1625 
L 3713 1625 
L 3713 1100 
L 3047 1100 
L 3047 0 
L 2419 0 
L 2419 1100 
L 313 1100 
L 313 1709 
L 2253 4666 
z
" transform="scale(0.015625)"/>
       </defs>
       <use xlink:href="#DejaVuSans-34"/>
       <use xlink:href="#DejaVuSans-30" x="63.623047"/>
       <use xlink:href="#DejaVuSans-30" x="127.246094"/>
       <use xlink:href="#DejaVuSans-30" x="190.869141"/>
       <use xlink:href="#DejaVuSans-30" x="254.492188"/>
       <use xlink:href="#DejaVuSans-30" x="318.115234"/>
      </g>
     </g>
    </g>
    <g id="ytick_6">
     <g id="line2d_12">
      <g>
       <use xlink:href="#mfb5194e875" x="57.6" y="74.928919" style="stroke: #000000; stroke-width: 0.8"/>
      </g>
     </g>
     <g id="text_13">
      <!-- 500000 -->
      <g transform="translate(12.425 78.728138)scale(0.1 -0.1)">
       <use xlink:href="#DejaVuSans-35"/>
       <use xlink:href="#DejaVuSans-30" x="63.623047"/>
       <use xlink:href="#DejaVuSans-30" x="127.246094"/>
       <use xlink:href="#DejaVuSans-30" x="190.869141"/>
       <use xlink:href="#DejaVuSans-30" x="254.492188"/>
       <use xlink:href="#DejaVuSans-30" x="318.115234"/>
      </g>
     </g>
    </g>
    <g id="text_14">
     <!-- Size in bits -->
     <g transform="translate(6.345312 201.656125)rotate(-90)scale(0.1 -0.1)">
      <defs>
       <path id="DejaVuSans-53" d="M 3425 4513 
L 3425 3897 
Q 3066 4069 2747 4153 
Q 2428 4238 2131 4238 
Q 1616 4238 1336 4038 
Q 1056 3838 1056 3469 
Q 1056 3159 1242 3001 
Q 1428 2844 1947 2747 
L 2328 2669 
Q 3034 2534 3370 2195 
Q 3706 1856 3706 1288 
Q 3706 609 3251 259 
Q 2797 -91 1919 -91 
Q 1588 -91 1214 -16 
Q 841 59 441 206 
L 441 856 
Q 825 641 1194 531 
Q 1563 422 1919 422 
Q 2459 422 2753 634 
Q 3047 847 3047 1241 
Q 3047 1584 2836 1778 
Q 2625 1972 2144 2069 
L 1759 2144 
Q 1053 2284 737 2584 
Q 422 2884 422 3419 
Q 422 4038 858 4394 
Q 1294 4750 2059 4750 
Q 2388 4750 2728 4690 
Q 3069 4631 3425 4513 
z
" transform="scale(0.015625)"/>
       <path id="DejaVuSans-69" d="M 603 3500 
L 1178 3500 
L 1178 0 
L 603 0 
L 603 3500 
z
M 603 4863 
L 1178 4863 
L 1178 4134 
L 603 4134 
L 603 4863 
z
" transform="scale(0.015625)"/>
       <path id="DejaVuSans-7a" d="M 353 3500 
L 3084 3500 
L 3084 2975 
L 922 459 
L 3084 459 
L 3084 0 
L 275 0 
L 275 525 
L 2438 3041 
L 353 3041 
L 353 3500 
z
" transform="scale(0.015625)"/>
       <path id="DejaVuSans-20" transform="scale(0.015625)"/>
       <path id="DejaVuSans-62" d="M 3116 1747 
Q 3116 2381 2855 2742 
Q 2594 3103 2138 3103 
Q 1681 3103 1420 2742 
Q 1159 2381 1159 1747 
Q 1159 1113 1420 752 
Q 1681 391 2138 391 
Q 2594 391 2855 752 
Q 3116 1113 3116 1747 
z
M 1159 2969 
Q 1341 3281 1617 3432 
Q 1894 3584 2278 3584 
Q 2916 3584 3314 3078 
Q 3713 2572 3713 1747 
Q 3713 922 3314 415 
Q 2916 -91 2278 -91 
Q 1894 -91 1617 61 
Q 1341 213 1159 525 
L 1159 0 
L 581 0 
L 581 4863 
L 1159 4863 
L 1159 2969 
z
" transform="scale(0.015625)"/>
      </defs>
      <use xlink:href="#DejaVuSans-53"/>
      <use xlink:href="#DejaVuSans-69" x="63.476562"/>
      <use xlink:href="#DejaVuSans-7a" x="91.259766"/>
      <use xlink:href="#DejaVuSans-65" x="143.75"/>
      <use xlink:href="#DejaVuSans-20" x="205.273438"/>
      <use xlink:href="#DejaVuSans-69" x="237.060547"/>
      <use xlink:href="#DejaVuSans-6e" x="264.84375"/>
      <use xlink:href="#DejaVuSans-20" x="328.222656"/>
      <use xlink:href="#DejaVuSans-62" x="360.009766"/>
      <use xlink:href="#DejaVuSans-69" x="423.486328"/>
      <use xlink:href="#DejaVuSans-74" x="451.269531"/>
      <use xlink:href="#DejaVuSans-73" x="490.478516"/>
     </g>
    </g>
   </g>
   <g id="line2d_13">
    <path d="M 73.832727 295.151423 
L 367.513164 295.151423 
L 367.513164 295.151423 
" clip-path="url(#pbac0b5a141)" style="fill: none; stroke: #1f77b4; stroke-width: 1.5; stroke-linecap: square"/>
   </g>
   <g id="line2d_14">
    <path d="M 73.832727 295.488 
L 77.274295 295.171539 
L 80.715863 294.856621 
L 91.040565 294.034413 
L 93.334944 293.785884 
L 101.365268 293.209205 
L 126.603431 290.919161 
L 131.192188 290.359288 
L 140.369701 289.487807 
L 144.958458 289.090488 
L 147.252836 288.811125 
L 150.694404 288.469519 
L 163.313485 287.408796 
L 167.902242 286.941956 
L 174.785377 286.421475 
L 203.465108 283.912811 
L 206.906675 283.654887 
L 209.201054 283.381435 
L 268.854892 278.21042 
L 272.29646 277.9195 
L 276.885217 277.465055 
L 280.326784 277.181281 
L 289.504298 276.488321 
L 292.945866 276.108735 
L 296.387433 275.906172 
L 302.123379 275.459756 
L 303.270569 275.809908 
L 311.300893 275.217039 
L 313.595271 275.055644 
L 314.742461 274.984127 
L 315.88965 275.379049 
L 319.331217 275.191383 
L 327.361542 274.412928 
L 328.508731 274.326972 
L 329.65592 274.531002 
L 333.097488 274.282723 
L 338.833434 273.572222 
L 339.980623 273.661343 
L 341.127812 274.158952 
L 342.275002 274.038746 
L 343.422191 274.44763 
L 345.716569 274.231627 
L 349.158137 274.036062 
L 350.305326 274.286546 
L 352.599704 274.062456 
L 353.746894 274.050987 
L 354.894083 273.743745 
L 356.041272 275.187539 
L 359.48284 275.123135 
L 361.777218 274.890223 
L 364.071597 274.789647 
L 365.218786 274.434102 
L 366.365975 274.213541 
L 373.24911 273.840792 
L 376.690678 273.777711 
L 378.985056 273.661696 
L 383.573813 273.586705 
L 384.721002 273.273508 
L 385.868191 273.12882 
L 391.604137 272.995601 
L 392.751327 272.791361 
L 395.045705 272.773717 
L 397.340084 272.388175 
L 398.487273 272.365678 
L 398.487273 272.365678 
" clip-path="url(#pbac0b5a141)" style="fill: none; stroke: #ff7f0e; stroke-width: 1.5; stroke-linecap: square"/>
   </g>
   <g id="line2d_15">
    <path d="M 73.832727 295.473884 
L 74.979916 295.005632 
L 76.127106 294.667203 
L 77.274295 293.909619 
L 83.010241 291.865898 
L 84.15743 291.33064 
L 85.304619 291.024545 
L 86.451809 290.459291 
L 87.598998 290.196867 
L 89.893376 289.288596 
L 91.040565 288.946064 
L 92.187755 288.385044 
L 95.629322 287.612727 
L 96.776511 287.201601 
L 97.923701 286.940015 
L 99.07089 286.497613 
L 100.218079 286.237483 
L 102.512457 285.566183 
L 103.659647 285.256427 
L 104.806836 284.704009 
L 107.101214 284.17572 
L 110.542782 283.731422 
L 112.83716 282.913933 
L 117.425917 281.974651 
L 118.573106 281.417116 
L 119.720296 281.161662 
L 125.456242 279.194476 
L 126.603431 278.987413 
L 127.75062 278.470329 
L 128.897809 278.176409 
L 131.192188 277.714995 
L 134.633755 276.679151 
L 136.928134 275.725444 
L 138.075323 275.486312 
L 140.369701 274.590524 
L 149.547215 271.780264 
L 150.694404 271.181926 
L 152.988783 270.490819 
L 156.43035 269.611882 
L 158.724729 268.762942 
L 159.871918 268.562672 
L 162.166296 267.616464 
L 163.313485 267.172033 
L 164.460675 266.942429 
L 166.755053 266.18458 
L 173.638188 264.361156 
L 174.785377 264.175444 
L 175.932567 263.642964 
L 178.226945 263.000514 
L 181.668513 262.084787 
L 185.11008 261.313352 
L 186.25727 260.961248 
L 187.404459 260.380598 
L 189.698837 259.644321 
L 191.993216 258.542308 
L 195.434783 257.682119 
L 200.02354 256.349576 
L 201.170729 255.815333 
L 204.612297 254.761667 
L 205.759486 254.339513 
L 206.906675 254.106027 
L 213.78981 251.902178 
L 216.084189 251.44222 
L 217.231378 250.824163 
L 218.378567 250.575414 
L 219.525757 250.444224 
L 220.672946 250.074961 
L 222.967324 249.529557 
L 224.114513 249.039602 
L 228.70327 247.783505 
L 230.997649 247.275597 
L 233.292027 246.497721 
L 234.439216 246.19092 
L 237.880784 244.891065 
L 244.763919 243.087579 
L 245.911108 242.346184 
L 247.058297 241.925794 
L 250.499865 241.318457 
L 253.941433 239.921819 
L 257.383 239.170278 
L 258.53019 238.79753 
L 260.824568 237.903992 
L 261.971757 237.637995 
L 264.266136 236.933699 
L 265.413325 236.643969 
L 267.707703 235.79847 
L 268.854892 235.609801 
L 270.002082 235.111598 
L 272.29646 234.518641 
L 274.590838 233.629558 
L 275.738028 232.998488 
L 276.885217 232.628872 
L 279.179595 232.082938 
L 280.326784 231.744333 
L 283.768352 231.182431 
L 284.915541 230.886085 
L 286.06273 230.445227 
L 287.20992 230.142484 
L 288.357109 229.371005 
L 289.504298 229.146032 
L 290.651487 228.778357 
L 291.798677 228.244378 
L 292.945866 227.83334 
L 294.093055 227.544537 
L 295.240244 227.016557 
L 296.387433 226.669217 
L 297.534623 226.130695 
L 298.681812 225.774268 
L 302.123379 224.994143 
L 303.270569 224.972841 
L 305.564947 224.28915 
L 310.153704 223.035088 
L 311.300893 222.545393 
L 314.742461 221.46577 
L 317.036839 220.894908 
L 319.331217 220.148069 
L 320.478407 219.780283 
L 321.625596 219.774604 
L 325.067164 219.067169 
L 326.214353 219.701819 
L 327.361542 219.325615 
L 328.508731 218.794062 
L 329.65592 218.566884 
L 330.80311 218.170388 
L 331.950299 217.953062 
L 333.097488 218.424769 
L 334.244677 218.135745 
L 335.391866 217.727442 
L 337.686245 217.076919 
L 338.833434 216.689172 
L 339.980623 215.883021 
L 341.127812 215.398006 
L 342.275002 215.222219 
L 343.422191 215.499906 
L 344.56938 215.298313 
L 345.716569 214.472531 
L 346.863758 214.011558 
L 348.010948 214.680079 
L 349.158137 214.52304 
L 350.305326 213.160853 
L 352.599704 212.899268 
L 353.746894 212.472702 
L 354.894083 212.349188 
L 356.041272 211.747938 
L 357.188461 211.502673 
L 357.188461 211.502673 
" clip-path="url(#pbac0b5a141)" style="fill: none; stroke: #2ca02c; stroke-width: 1.5; stroke-linecap: square"/>
   </g>
   <g id="line2d_16">
    <path d="M 73.832727 295.135102 
L 74.979916 290.51474 
L 76.127106 282.660111 
L 77.274295 279.227649 
L 78.421484 273.619966 
L 79.568673 269.482413 
L 80.715863 263.214017 
L 81.863052 260.31368 
L 83.010241 253.153908 
L 85.304619 247.864187 
L 86.451809 242.453995 
L 87.598998 239.908761 
L 88.746187 238.329146 
L 89.893376 233.200258 
L 91.040565 232.502402 
L 92.187755 230.029733 
L 93.334944 226.821096 
L 94.482133 224.706707 
L 95.629322 219.966139 
L 99.07089 210.446626 
L 100.218079 206.69382 
L 101.365268 201.597266 
L 102.512457 200.585507 
L 103.659647 201.078815 
L 104.806836 198.288009 
L 105.954025 197.642646 
L 107.101214 194.017545 
L 108.248403 187.39956 
L 109.395593 186.13742 
L 110.542782 182.92243 
L 112.83716 184.463624 
L 113.98435 180.051163 
L 115.131539 179.920635 
L 116.278728 180.590348 
L 117.425917 181.023398 
L 118.573106 175.174553 
L 119.720296 168.663231 
L 122.014674 166.046669 
L 123.161863 164.340936 
L 124.309052 159.079093 
L 125.456242 158.307791 
L 126.603431 158.157368 
L 128.897809 159.395864 
L 130.044998 154.265211 
L 131.192188 158.049028 
L 132.339377 153.912931 
L 133.486566 156.677181 
L 134.633755 156.093796 
L 135.780944 151.907764 
L 136.928134 148.521001 
L 138.075323 145.530808 
L 139.222512 144.21463 
L 140.369701 144.235539 
L 141.51689 146.363603 
L 142.66408 144.784472 
L 143.811269 146.794933 
L 144.958458 147.282461 
L 146.105647 142.916804 
L 147.252836 141.652326 
L 148.400026 138.560277 
L 149.547215 139.114503 
L 150.694404 137.41477 
L 151.841593 132.27031 
L 152.988783 129.676642 
L 154.135972 128.948834 
L 155.283161 132.902748 
L 156.43035 126.548245 
L 157.577539 124.580882 
L 158.724729 124.30796 
L 159.871918 126.561787 
L 161.019107 126.512117 
L 162.166296 129.842283 
L 163.313485 130.02729 
L 164.460675 129.457933 
L 165.607864 130.334179 
L 166.755053 135.368976 
L 167.902242 136.981632 
L 169.049431 135.313835 
L 170.196621 132.554526 
L 171.34381 136.160394 
L 172.490999 135.340391 
L 173.638188 136.334064 
L 175.932567 131.917942 
L 177.079756 133.979969 
L 178.226945 135.396767 
L 179.374134 132.391178 
L 180.521323 128.362494 
L 181.668513 129.877926 
L 182.815702 129.575978 
L 183.962891 129.801656 
L 186.25727 127.805709 
L 187.404459 132.999618 
L 188.551648 134.561016 
L 189.698837 140.218545 
L 190.846026 138.21576 
L 191.993216 139.318258 
L 193.140405 140.772242 
L 194.287594 143.129954 
L 195.434783 141.970507 
L 196.581972 144.927043 
L 197.729162 142.137075 
L 198.876351 138.645811 
L 201.170729 133.646524 
L 202.317918 137.168624 
L 203.465108 134.21297 
L 204.612297 132.921451 
L 205.759486 132.343845 
L 206.906675 134.309752 
L 208.053864 131.727377 
L 209.201054 136.619294 
L 210.348243 134.055842 
L 211.495432 130.291655 
L 212.642621 129.512544 
L 213.78981 128.137962 
L 214.937 127.198327 
L 216.084189 123.310626 
L 217.231378 125.051075 
L 218.378567 121.468454 
L 219.525757 121.963349 
L 220.672946 119.156574 
L 221.820135 115.047076 
L 222.967324 114.470265 
L 224.114513 113.06873 
L 225.261703 111.083281 
L 226.408892 111.974481 
L 227.556081 115.697688 
L 228.70327 113.314391 
L 229.850459 111.252981 
L 230.997649 112.602993 
L 232.144838 117.761524 
L 233.292027 120.611882 
L 234.439216 122.454495 
L 235.586405 120.189772 
L 236.733595 119.967137 
L 237.880784 116.661938 
L 239.027973 115.088321 
L 240.175162 119.533911 
L 241.322351 119.368754 
L 242.469541 121.755713 
L 244.763919 121.637359 
L 245.911108 117.542507 
L 247.058297 118.210719 
L 248.205487 119.283971 
L 249.352676 119.141664 
L 250.499865 121.631669 
L 251.647054 121.624655 
L 252.794243 121.063591 
L 253.941433 118.318133 
L 256.235811 116.486989 
L 257.383 116.419762 
L 258.53019 114.165052 
L 259.677379 114.026451 
L 260.824568 112.797484 
L 261.971757 113.121135 
L 263.118946 113.027661 
L 264.266136 110.524379 
L 265.413325 112.259711 
L 266.560514 112.569732 
L 267.707703 112.042105 
L 268.854892 109.489991 
L 270.002082 108.68428 
L 271.149271 105.647857 
L 273.443649 101.175227 
L 274.590838 95.260832 
L 276.885217 97.021705 
L 278.032406 94.285113 
L 279.179595 91.948796 
L 280.326784 91.476309 
L 281.473974 91.89864 
L 282.621163 93.749061 
L 283.768352 95.999933 
L 284.915541 90.09339 
L 286.06273 93.767544 
L 287.20992 91.321872 
L 289.504298 98.73604 
L 290.651487 107.538376 
L 291.798677 104.578047 
L 294.093055 105.306869 
L 295.240244 104.557711 
L 296.387433 103.355343 
L 297.534623 106.227051 
L 298.681812 105.505551 
L 300.97619 97.25625 
L 302.123379 98.749009 
L 303.270569 102.336615 
L 304.417758 101.3028 
L 305.564947 98.585044 
L 306.712136 100.292056 
L 307.859325 101.274039 
L 309.006515 104.80474 
L 310.153704 111.645904 
L 311.300893 108.867077 
L 312.448082 106.568338 
L 313.595271 104.645693 
L 314.742461 100.360518 
L 315.88965 100.574573 
L 317.036839 102.928348 
L 318.184028 98.001891 
L 319.331217 99.160775 
L 320.478407 92.727995 
L 321.625596 93.141492 
L 322.772785 89.027803 
L 325.067164 95.271232 
L 327.361542 94.811582 
L 328.508731 94.783405 
L 329.65592 94.387718 
L 330.80311 97.631104 
L 331.950299 92.227247 
L 333.097488 94.693931 
L 334.244677 91.708707 
L 335.391866 90.39997 
L 336.539056 90.262046 
L 337.686245 88.481528 
L 338.833434 88.819502 
L 341.127812 92.093219 
L 342.275002 95.489937 
L 343.422191 101.845072 
L 344.56938 106.400545 
L 345.716569 109.008285 
L 346.863758 97.370369 
L 348.010948 108.692882 
L 349.158137 108.464969 
L 350.305326 106.093567 
L 351.452515 96.321159 
L 352.599704 99.572894 
L 353.746894 97.586078 
L 354.894083 97.062024 
L 356.041272 62.641009 
L 357.188461 60.488331 
L 357.188461 60.488331 
" clip-path="url(#pbac0b5a141)" style="fill: none; stroke: #d62728; stroke-width: 1.5; stroke-linecap: square"/>
   </g>
   <g id="line2d_17"/>
   <g id="line2d_18"/>
   <g id="line2d_19"/>
   <g id="line2d_20"/>
   <g id="patch_3">
    <path d="M 57.6 307.584 
L 57.6 41.472 
" style="fill: none; stroke: #000000; stroke-width: 0.8; stroke-linejoin: miter; stroke-linecap: square"/>
   </g>
   <g id="patch_4">
    <path d="M 414.72 307.584 
L 414.72 41.472 
" style="fill: none; stroke: #000000; stroke-width: 0.8; stroke-linejoin: miter; stroke-linecap: square"/>
   </g>
   <g id="patch_5">
    <path d="M 57.6 307.584 
L 414.72 307.584 
" style="fill: none; stroke: #000000; stroke-width: 0.8; stroke-linejoin: miter; stroke-linecap: square"/>
   </g>
   <g id="patch_6">
    <path d="M 57.6 41.472 
L 414.72 41.472 
" style="fill: none; stroke: #000000; stroke-width: 0.8; stroke-linejoin: miter; stroke-linecap: square"/>
   </g>
   <g id="text_15">
    <!-- Size in bits vs Number of events per process, @95% conf. int. -->
    <g transform="translate(51.315937 35.472)scale(0.12 -0.12)">
     <defs>
      <path id="DejaVuSans-4e" d="M 628 4666 
L 1478 4666 
L 3547 763 
L 3547 4666 
L 4159 4666 
L 4159 0 
L 3309 0 
L 1241 3903 
L 1241 0 
L 628 0 
L 628 4666 
z
" transform="scale(0.015625)"/>
      <path id="DejaVuSans-75" d="M 544 1381 
L 544 3500 
L 1119 3500 
L 1119 1403 
Q 1119 906 1312 657 
Q 1506 409 1894 409 
Q 2359 409 2629 706 
Q 2900 1003 2900 1516 
L 2900 3500 
L 3475 3500 
L 3475 0 
L 2900 0 
L 2900 538 
Q 2691 219 2414 64 
Q 2138 -91 1772 -91 
Q 1169 -91 856 284 
Q 544 659 544 1381 
z
M 1991 3584 
L 1991 3584 
z
" transform="scale(0.015625)"/>
      <path id="DejaVuSans-6d" d="M 3328 2828 
Q 3544 3216 3844 3400 
Q 4144 3584 4550 3584 
Q 5097 3584 5394 3201 
Q 5691 2819 5691 2113 
L 5691 0 
L 5113 0 
L 5113 2094 
Q 5113 2597 4934 2840 
Q 4756 3084 4391 3084 
Q 3944 3084 3684 2787 
Q 3425 2491 3425 1978 
L 3425 0 
L 2847 0 
L 2847 2094 
Q 2847 2600 2669 2842 
Q 2491 3084 2119 3084 
Q 1678 3084 1418 2786 
Q 1159 2488 1159 1978 
L 1159 0 
L 581 0 
L 581 3500 
L 1159 3500 
L 1159 2956 
Q 1356 3278 1631 3431 
Q 1906 3584 2284 3584 
Q 2666 3584 2933 3390 
Q 3200 3197 3328 2828 
z
" transform="scale(0.015625)"/>
      <path id="DejaVuSans-72" d="M 2631 2963 
Q 2534 3019 2420 3045 
Q 2306 3072 2169 3072 
Q 1681 3072 1420 2755 
Q 1159 2438 1159 1844 
L 1159 0 
L 581 0 
L 581 3500 
L 1159 3500 
L 1159 2956 
Q 1341 3275 1631 3429 
Q 1922 3584 2338 3584 
Q 2397 3584 2469 3576 
Q 2541 3569 2628 3553 
L 2631 2963 
z
" transform="scale(0.015625)"/>
      <path id="DejaVuSans-6f" d="M 1959 3097 
Q 1497 3097 1228 2736 
Q 959 2375 959 1747 
Q 959 1119 1226 758 
Q 1494 397 1959 397 
Q 2419 397 2687 759 
Q 2956 1122 2956 1747 
Q 2956 2369 2687 2733 
Q 2419 3097 1959 3097 
z
M 1959 3584 
Q 2709 3584 3137 3096 
Q 3566 2609 3566 1747 
Q 3566 888 3137 398 
Q 2709 -91 1959 -91 
Q 1206 -91 779 398 
Q 353 888 353 1747 
Q 353 2609 779 3096 
Q 1206 3584 1959 3584 
z
" transform="scale(0.015625)"/>
      <path id="DejaVuSans-66" d="M 2375 4863 
L 2375 4384 
L 1825 4384 
Q 1516 4384 1395 4259 
Q 1275 4134 1275 3809 
L 1275 3500 
L 2222 3500 
L 2222 3053 
L 1275 3053 
L 1275 0 
L 697 0 
L 697 3053 
L 147 3053 
L 147 3500 
L 697 3500 
L 697 3744 
Q 697 4328 969 4595 
Q 1241 4863 1831 4863 
L 2375 4863 
z
" transform="scale(0.015625)"/>
      <path id="DejaVuSans-70" d="M 1159 525 
L 1159 -1331 
L 581 -1331 
L 581 3500 
L 1159 3500 
L 1159 2969 
Q 1341 3281 1617 3432 
Q 1894 3584 2278 3584 
Q 2916 3584 3314 3078 
Q 3713 2572 3713 1747 
Q 3713 922 3314 415 
Q 2916 -91 2278 -91 
Q 1894 -91 1617 61 
Q 1341 213 1159 525 
z
M 3116 1747 
Q 3116 2381 2855 2742 
Q 2594 3103 2138 3103 
Q 1681 3103 1420 2742 
Q 1159 2381 1159 1747 
Q 1159 1113 1420 752 
Q 1681 391 2138 391 
Q 2594 391 2855 752 
Q 3116 1113 3116 1747 
z
" transform="scale(0.015625)"/>
      <path id="DejaVuSans-63" d="M 3122 3366 
L 3122 2828 
Q 2878 2963 2633 3030 
Q 2388 3097 2138 3097 
Q 1578 3097 1268 2742 
Q 959 2388 959 1747 
Q 959 1106 1268 751 
Q 1578 397 2138 397 
Q 2388 397 2633 464 
Q 2878 531 3122 666 
L 3122 134 
Q 2881 22 2623 -34 
Q 2366 -91 2075 -91 
Q 1284 -91 818 406 
Q 353 903 353 1747 
Q 353 2603 823 3093 
Q 1294 3584 2113 3584 
Q 2378 3584 2631 3529 
Q 2884 3475 3122 3366 
z
" transform="scale(0.015625)"/>
      <path id="DejaVuSans-2c" d="M 750 794 
L 1409 794 
L 1409 256 
L 897 -744 
L 494 -744 
L 750 256 
L 750 794 
z
" transform="scale(0.015625)"/>
      <path id="DejaVuSans-40" d="M 2381 1678 
Q 2381 1231 2603 976 
Q 2825 722 3213 722 
Q 3597 722 3817 978 
Q 4038 1234 4038 1678 
Q 4038 2116 3813 2373 
Q 3588 2631 3206 2631 
Q 2828 2631 2604 2375 
Q 2381 2119 2381 1678 
z
M 4084 744 
Q 3897 503 3655 389 
Q 3413 275 3091 275 
Q 2553 275 2217 664 
Q 1881 1053 1881 1678 
Q 1881 2303 2218 2693 
Q 2556 3084 3091 3084 
Q 3413 3084 3656 2967 
Q 3900 2850 4084 2613 
L 4084 3022 
L 4531 3022 
L 4531 722 
Q 4988 791 5245 1139 
Q 5503 1488 5503 2041 
Q 5503 2375 5404 2669 
Q 5306 2963 5106 3213 
Q 4781 3622 4314 3839 
Q 3847 4056 3297 4056 
Q 2913 4056 2559 3954 
Q 2206 3853 1906 3653 
Q 1416 3334 1139 2817 
Q 863 2300 863 1697 
Q 863 1200 1042 765 
Q 1222 331 1563 0 
Q 1891 -325 2322 -495 
Q 2753 -666 3244 -666 
Q 3647 -666 4036 -530 
Q 4425 -394 4750 -141 
L 5031 -488 
Q 4641 -791 4180 -952 
Q 3719 -1113 3244 -1113 
Q 2666 -1113 2153 -908 
Q 1641 -703 1241 -313 
Q 841 78 631 592 
Q 422 1106 422 1697 
Q 422 2266 634 2781 
Q 847 3297 1241 3688 
Q 1644 4084 2172 4295 
Q 2700 4506 3291 4506 
Q 3953 4506 4520 4234 
Q 5088 3963 5472 3463 
Q 5706 3156 5829 2797 
Q 5953 2438 5953 2053 
Q 5953 1231 5456 756 
Q 4959 281 4084 263 
L 4084 744 
z
" transform="scale(0.015625)"/>
      <path id="DejaVuSans-39" d="M 703 97 
L 703 672 
Q 941 559 1184 500 
Q 1428 441 1663 441 
Q 2288 441 2617 861 
Q 2947 1281 2994 2138 
Q 2813 1869 2534 1725 
Q 2256 1581 1919 1581 
Q 1219 1581 811 2004 
Q 403 2428 403 3163 
Q 403 3881 828 4315 
Q 1253 4750 1959 4750 
Q 2769 4750 3195 4129 
Q 3622 3509 3622 2328 
Q 3622 1225 3098 567 
Q 2575 -91 1691 -91 
Q 1453 -91 1209 -44 
Q 966 3 703 97 
z
M 1959 2075 
Q 2384 2075 2632 2365 
Q 2881 2656 2881 3163 
Q 2881 3666 2632 3958 
Q 2384 4250 1959 4250 
Q 1534 4250 1286 3958 
Q 1038 3666 1038 3163 
Q 1038 2656 1286 2365 
Q 1534 2075 1959 2075 
z
" transform="scale(0.015625)"/>
      <path id="DejaVuSans-25" d="M 4653 2053 
Q 4381 2053 4226 1822 
Q 4072 1591 4072 1178 
Q 4072 772 4226 539 
Q 4381 306 4653 306 
Q 4919 306 5073 539 
Q 5228 772 5228 1178 
Q 5228 1588 5073 1820 
Q 4919 2053 4653 2053 
z
M 4653 2450 
Q 5147 2450 5437 2106 
Q 5728 1763 5728 1178 
Q 5728 594 5436 251 
Q 5144 -91 4653 -91 
Q 4153 -91 3862 251 
Q 3572 594 3572 1178 
Q 3572 1766 3864 2108 
Q 4156 2450 4653 2450 
z
M 1428 4353 
Q 1159 4353 1004 4120 
Q 850 3888 850 3481 
Q 850 3069 1003 2837 
Q 1156 2606 1428 2606 
Q 1700 2606 1854 2837 
Q 2009 3069 2009 3481 
Q 2009 3884 1853 4118 
Q 1697 4353 1428 4353 
z
M 4250 4750 
L 4750 4750 
L 1831 -91 
L 1331 -91 
L 4250 4750 
z
M 1428 4750 
Q 1922 4750 2215 4408 
Q 2509 4066 2509 3481 
Q 2509 2891 2217 2550 
Q 1925 2209 1428 2209 
Q 931 2209 642 2551 
Q 353 2894 353 3481 
Q 353 4063 643 4406 
Q 934 4750 1428 4750 
z
" transform="scale(0.015625)"/>
      <path id="DejaVuSans-2e" d="M 684 794 
L 1344 794 
L 1344 0 
L 684 0 
L 684 794 
z
" transform="scale(0.015625)"/>
     </defs>
     <use xlink:href="#DejaVuSans-53"/>
     <use xlink:href="#DejaVuSans-69" x="63.476562"/>
     <use xlink:href="#DejaVuSans-7a" x="91.259766"/>
     <use xlink:href="#DejaVuSans-65" x="143.75"/>
     <use xlink:href="#DejaVuSans-20" x="205.273438"/>
     <use xlink:href="#DejaVuSans-69" x="237.060547"/>
     <use xlink:href="#DejaVuSans-6e" x="264.84375"/>
     <use xlink:href="#DejaVuSans-20" x="328.222656"/>
     <use xlink:href="#DejaVuSans-62" x="360.009766"/>
     <use xlink:href="#DejaVuSans-69" x="423.486328"/>
     <use xlink:href="#DejaVuSans-74" x="451.269531"/>
     <use xlink:href="#DejaVuSans-73" x="490.478516"/>
     <use xlink:href="#DejaVuSans-20" x="542.578125"/>
     <use xlink:href="#DejaVuSans-76" x="574.365234"/>
     <use xlink:href="#DejaVuSans-73" x="633.544922"/>
     <use xlink:href="#DejaVuSans-20" x="685.644531"/>
     <use xlink:href="#DejaVuSans-4e" x="717.431641"/>
     <use xlink:href="#DejaVuSans-75" x="792.236328"/>
     <use xlink:href="#DejaVuSans-6d" x="855.615234"/>
     <use xlink:href="#DejaVuSans-62" x="953.027344"/>
     <use xlink:href="#DejaVuSans-65" x="1016.503906"/>
     <use xlink:href="#DejaVuSans-72" x="1078.027344"/>
     <use xlink:href="#DejaVuSans-20" x="1119.140625"/>
     <use xlink:href="#DejaVuSans-6f" x="1150.927734"/>
     <use xlink:href="#DejaVuSans-66" x="1212.109375"/>
     <use xlink:href="#DejaVuSans-20" x="1247.314453"/>
     <use xlink:href="#DejaVuSans-65" x="1279.101562"/>
     <use xlink:href="#DejaVuSans-76" x="1340.625"/>
     <use xlink:href="#DejaVuSans-65" x="1399.804688"/>
     <use xlink:href="#DejaVuSans-6e" x="1461.328125"/>
     <use xlink:href="#DejaVuSans-74" x="1524.707031"/>
     <use xlink:href="#DejaVuSans-73" x="1563.916016"/>
     <use xlink:href="#DejaVuSans-20" x="1616.015625"/>
     <use xlink:href="#DejaVuSans-70" x="1647.802734"/>
     <use xlink:href="#DejaVuSans-65" x="1711.279297"/>
     <use xlink:href="#DejaVuSans-72" x="1772.802734"/>
     <use xlink:href="#DejaVuSans-20" x="1813.916016"/>
     <use xlink:href="#DejaVuSans-70" x="1845.703125"/>
     <use xlink:href="#DejaVuSans-72" x="1909.179688"/>
     <use xlink:href="#DejaVuSans-6f" x="1948.042969"/>
     <use xlink:href="#DejaVuSans-63" x="2009.224609"/>
     <use xlink:href="#DejaVuSans-65" x="2064.205078"/>
     <use xlink:href="#DejaVuSans-73" x="2125.728516"/>
     <use xlink:href="#DejaVuSans-73" x="2177.828125"/>
     <use xlink:href="#DejaVuSans-2c" x="2229.927734"/>
     <use xlink:href="#DejaVuSans-20" x="2261.714844"/>
     <use xlink:href="#DejaVuSans-40" x="2293.501953"/>
     <use xlink:href="#DejaVuSans-39" x="2393.501953"/>
     <use xlink:href="#DejaVuSans-35" x="2457.125"/>
     <use xlink:href="#DejaVuSans-25" x="2520.748047"/>
     <use xlink:href="#DejaVuSans-20" x="2615.767578"/>
     <use xlink:href="#DejaVuSans-63" x="2647.554688"/>
     <use xlink:href="#DejaVuSans-6f" x="2702.535156"/>
     <use xlink:href="#DejaVuSans-6e" x="2763.716797"/>
     <use xlink:href="#DejaVuSans-66" x="2827.095703"/>
     <use xlink:href="#DejaVuSans-2e" x="2855.050781"/>
     <use xlink:href="#DejaVuSans-20" x="2886.837891"/>
     <use xlink:href="#DejaVuSans-69" x="2918.625"/>
     <use xlink:href="#DejaVuSans-6e" x="2946.408203"/>
     <use xlink:href="#DejaVuSans-74" x="3009.787109"/>
     <use xlink:href="#DejaVuSans-2e" x="3048.996094"/>
    </g>
   </g>
   <g id="legend_1">
    <g id="patch_7">
     <path d="M 64.6 122.862625 
L 146.126563 122.862625 
Q 148.126563 122.862625 148.126563 120.862625 
L 148.126563 48.472 
Q 148.126563 46.472 146.126563 46.472 
L 64.6 46.472 
Q 62.6 46.472 62.6 48.472 
L 62.6 120.862625 
Q 62.6 122.862625 64.6 122.862625 
z
" style="fill: #ffffff; opacity: 0.8; stroke: #cccccc; stroke-linejoin: miter"/>
    </g>
    <g id="text_16">
     <!-- Clock -->
     <g transform="translate(91.778906 58.070438)scale(0.1 -0.1)">
      <defs>
       <path id="DejaVuSans-43" d="M 4122 4306 
L 4122 3641 
Q 3803 3938 3442 4084 
Q 3081 4231 2675 4231 
Q 1875 4231 1450 3742 
Q 1025 3253 1025 2328 
Q 1025 1406 1450 917 
Q 1875 428 2675 428 
Q 3081 428 3442 575 
Q 3803 722 4122 1019 
L 4122 359 
Q 3791 134 3420 21 
Q 3050 -91 2638 -91 
Q 1578 -91 968 557 
Q 359 1206 359 2328 
Q 359 3453 968 4101 
Q 1578 4750 2638 4750 
Q 3056 4750 3426 4639 
Q 3797 4528 4122 4306 
z
" transform="scale(0.015625)"/>
       <path id="DejaVuSans-6c" d="M 603 4863 
L 1178 4863 
L 1178 0 
L 603 0 
L 603 4863 
z
" transform="scale(0.015625)"/>
       <path id="DejaVuSans-6b" d="M 581 4863 
L 1159 4863 
L 1159 1991 
L 2875 3500 
L 3609 3500 
L 1753 1863 
L 3688 0 
L 2938 0 
L 1159 1709 
L 1159 0 
L 581 0 
L 581 4863 
z
" transform="scale(0.015625)"/>
      </defs>
      <use xlink:href="#DejaVuSans-43"/>
      <use xlink:href="#DejaVuSans-6c" x="69.824219"/>
      <use xlink:href="#DejaVuSans-6f" x="97.607422"/>
      <use xlink:href="#DejaVuSans-63" x="158.789062"/>
      <use xlink:href="#DejaVuSans-6b" x="213.769531"/>
     </g>
    </g>
    <g id="line2d_21">
     <path d="M 66.6 69.248563 
L 76.6 69.248563 
L 86.6 69.248563 
" style="fill: none; stroke: #1f77b4; stroke-width: 1.5; stroke-linecap: square"/>
    </g>
    <g id="text_17">
     <!-- VC -->
     <g transform="translate(94.6 72.748563)scale(0.1 -0.1)">
      <defs>
       <path id="DejaVuSans-56" d="M 1831 0 
L 50 4666 
L 709 4666 
L 2188 738 
L 3669 4666 
L 4325 4666 
L 2547 0 
L 1831 0 
z
" transform="scale(0.015625)"/>
      </defs>
      <use xlink:href="#DejaVuSans-56"/>
      <use xlink:href="#DejaVuSans-43" x="68.408203"/>
     </g>
    </g>
    <g id="line2d_22">
     <path d="M 66.6 83.926688 
L 76.6 83.926688 
L 86.6 83.926688 
" style="fill: none; stroke: #ff7f0e; stroke-width: 1.5; stroke-linecap: square"/>
    </g>
    <g id="text_18">
     <!-- EVC -->
     <g transform="translate(94.6 87.426688)scale(0.1 -0.1)">
      <use xlink:href="#DejaVuSans-45"/>
      <use xlink:href="#DejaVuSans-56" x="63.183594"/>
      <use xlink:href="#DejaVuSans-43" x="131.591797"/>
     </g>
    </g>
    <g id="line2d_23">
     <path d="M 66.6 98.604813 
L 76.6 98.604813 
L 86.6 98.604813 
" style="fill: none; stroke: #2ca02c; stroke-width: 1.5; stroke-linecap: square"/>
    </g>
    <g id="text_19">
     <!-- REVC -->
     <g transform="translate(94.6 102.104813)scale(0.1 -0.1)">
      <defs>
       <path id="DejaVuSans-52" d="M 2841 2188 
Q 3044 2119 3236 1894 
Q 3428 1669 3622 1275 
L 4263 0 
L 3584 0 
L 2988 1197 
Q 2756 1666 2539 1819 
Q 2322 1972 1947 1972 
L 1259 1972 
L 1259 0 
L 628 0 
L 628 4666 
L 2053 4666 
Q 2853 4666 3247 4331 
Q 3641 3997 3641 3322 
Q 3641 2881 3436 2590 
Q 3231 2300 2841 2188 
z
M 1259 4147 
L 1259 2491 
L 2053 2491 
Q 2509 2491 2742 2702 
Q 2975 2913 2975 3322 
Q 2975 3731 2742 3939 
Q 2509 4147 2053 4147 
L 1259 4147 
z
" transform="scale(0.015625)"/>
      </defs>
      <use xlink:href="#DejaVuSans-52"/>
      <use xlink:href="#DejaVuSans-45" x="69.482422"/>
      <use xlink:href="#DejaVuSans-56" x="132.666016"/>
      <use xlink:href="#DejaVuSans-43" x="201.074219"/>
     </g>
    </g>
    <g id="line2d_24">
     <path d="M 66.6 113.282938 
L 76.6 113.282938 
L 86.6 113.282938 
" style="fill: none; stroke: #d62728; stroke-width: 1.5; stroke-linecap: square"/>
    </g>
    <g id="text_20">
     <!-- DMTREVC -->
     <g transform="translate(94.6 116.782938)scale(0.1 -0.1)">
      <defs>
       <path id="DejaVuSans-44" d="M 1259 4147 
L 1259 519 
L 2022 519 
Q 2988 519 3436 956 
Q 3884 1394 3884 2338 
Q 3884 3275 3436 3711 
Q 2988 4147 2022 4147 
L 1259 4147 
z
M 628 4666 
L 1925 4666 
Q 3281 4666 3915 4102 
Q 4550 3538 4550 2338 
Q 4550 1131 3912 565 
Q 3275 0 1925 0 
L 628 0 
L 628 4666 
z
" transform="scale(0.015625)"/>
       <path id="DejaVuSans-4d" d="M 628 4666 
L 1569 4666 
L 2759 1491 
L 3956 4666 
L 4897 4666 
L 4897 0 
L 4281 0 
L 4281 4097 
L 3078 897 
L 2444 897 
L 1241 4097 
L 1241 0 
L 628 0 
L 628 4666 
z
" transform="scale(0.015625)"/>
       <path id="DejaVuSans-54" d="M -19 4666 
L 3928 4666 
L 3928 4134 
L 2272 4134 
L 2272 0 
L 1638 0 
L 1638 4134 
L -19 4134 
L -19 4666 
z
" transform="scale(0.015625)"/>
      </defs>
      <use xlink:href="#DejaVuSans-44"/>
      <use xlink:href="#DejaVuSans-4d" x="77.001953"/>
      <use xlink:href="#DejaVuSans-54" x="163.28125"/>
      <use xlink:href="#DejaVuSans-52" x="224.365234"/>
      <use xlink:href="#DejaVuSans-45" x="293.847656"/>
      <use xlink:href="#DejaVuSans-56" x="357.03125"/>
      <use xlink:href="#DejaVuSans-43" x="425.439453"/>
     </g>
    </g>
   </g>
  </g>
 </g>
 <defs>
  <clipPath id="pbac0b5a141">
   <rect x="57.6" y="41.472" width="357.12" height="266.112"/>
  </clipPath>
 </defs>
</svg>
