<?xml version="1.0" encoding="utf-8" standalone="no"?>
<!DOCTYPE svg PUBLIC "-//W3C//DTD SVG 1.1//EN"
  "http://www.w3.org/Graphics/SVG/1.1/DTD/svg11.dtd">
<svg xmlns:xlink="http://www.w3.org/1999/xlink" width="460.8pt" height="345.6pt" viewBox="0 0 460.8 345.6" xmlns="http://www.w3.org/2000/svg" version="1.1">
 <metadata>
  <rdf:RDF xmlns:dc="http://purl.org/dc/elements/1.1/" xmlns:cc="http://creativecommons.org/ns#" xmlns:rdf="http://www.w3.org/1999/02/22-rdf-syntax-ns#">
   <cc:Work>
    <dc:type rdf:resource="http://purl.org/dc/dcmitype/StillImage"/>
    <dc:date>2022-03-25T23:56:09.501584</dc:date>
    <dc:format>image/svg+xml</dc:format>
    <dc:creator>
     <cc:Agent>
      <dc:title>Matplotlib v3.5.1, https://matplotlib.org/</dc:title>
     </cc:Agent>
    </dc:creator>
   </cc:Work>
  </rdf:RDF>
 </metadata>
 <defs>
  <style type="text/css">*{stroke-linejoin: round; stroke-linecap: butt}</style>
 </defs>
 <g id="figure_1">
  <g id="patch_1">
   <path d="M 0 345.6 
L 460.8 345.6 
L 460.8 0 
L 0 0 
z
" style="fill: #ffffff"/>
  </g>
  <g id="axes_1">
   <g id="patch_2">
    <path d="M 57.6 307.584 
L 414.72 307.584 
L 414.72 41.472 
L 57.6 41.472 
z
" style="fill: #ffffff"/>
   </g>
   <g id="matplotlib.axis_1">
    <g id="xtick_1">
     <g id="line2d_1">
      <defs>
       <path id="m784bbe2134" d="M 0 0 
L 0 3.5 
" style="stroke: #000000; stroke-width: 0.8"/>
      </defs>
      <g>
       <use xlink:href="#m784bbe2134" x="70.854245" y="307.584" style="stroke: #000000; stroke-width: 0.8"/>
      </g>
     </g>
     <g id="text_1">
      <!-- 0 -->
      <g transform="translate(67.672995 322.182437)scale(0.1 -0.1)">
       <defs>
        <path id="DejaVuSans-30" d="M 2034 4250 
Q 1547 4250 1301 3770 
Q 1056 3291 1056 2328 
Q 1056 1369 1301 889 
Q 1547 409 2034 409 
Q 2525 409 2770 889 
Q 3016 1369 3016 2328 
Q 3016 3291 2770 3770 
Q 2525 4250 2034 4250 
z
M 2034 4750 
Q 2819 4750 3233 4129 
Q 3647 3509 3647 2328 
Q 3647 1150 3233 529 
Q 2819 -91 2034 -91 
Q 1250 -91 836 529 
Q 422 1150 422 2328 
Q 422 3509 836 4129 
Q 1250 4750 2034 4750 
z
" transform="scale(0.015625)"/>
       </defs>
       <use xlink:href="#DejaVuSans-30"/>
      </g>
     </g>
    </g>
    <g id="xtick_2">
     <g id="line2d_2">
      <g>
       <use xlink:href="#m784bbe2134" x="130.423887" y="307.584" style="stroke: #000000; stroke-width: 0.8"/>
      </g>
     </g>
     <g id="text_2">
      <!-- 20 -->
      <g transform="translate(124.061387 322.182437)scale(0.1 -0.1)">
       <defs>
        <path id="DejaVuSans-32" d="M 1228 531 
L 3431 531 
L 3431 0 
L 469 0 
L 469 531 
Q 828 903 1448 1529 
Q 2069 2156 2228 2338 
Q 2531 2678 2651 2914 
Q 2772 3150 2772 3378 
Q 2772 3750 2511 3984 
Q 2250 4219 1831 4219 
Q 1534 4219 1204 4116 
Q 875 4013 500 3803 
L 500 4441 
Q 881 4594 1212 4672 
Q 1544 4750 1819 4750 
Q 2544 4750 2975 4387 
Q 3406 4025 3406 3419 
Q 3406 3131 3298 2873 
Q 3191 2616 2906 2266 
Q 2828 2175 2409 1742 
Q 1991 1309 1228 531 
z
" transform="scale(0.015625)"/>
       </defs>
       <use xlink:href="#DejaVuSans-32"/>
       <use xlink:href="#DejaVuSans-30" x="63.623047"/>
      </g>
     </g>
    </g>
    <g id="xtick_3">
     <g id="line2d_3">
      <g>
       <use xlink:href="#m784bbe2134" x="189.993528" y="307.584" style="stroke: #000000; stroke-width: 0.8"/>
      </g>
     </g>
     <g id="text_3">
      <!-- 40 -->
      <g transform="translate(183.631028 322.182437)scale(0.1 -0.1)">
       <defs>
        <path id="DejaVuSans-34" d="M 2419 4116 
L 825 1625 
L 2419 1625 
L 2419 4116 
z
M 2253 4666 
L 3047 4666 
L 3047 1625 
L 3713 1625 
L 3713 1100 
L 3047 1100 
L 3047 0 
L 2419 0 
L 2419 1100 
L 313 1100 
L 313 1709 
L 2253 4666 
z
" transform="scale(0.015625)"/>
       </defs>
       <use xlink:href="#DejaVuSans-34"/>
       <use xlink:href="#DejaVuSans-30" x="63.623047"/>
      </g>
     </g>
    </g>
    <g id="xtick_4">
     <g id="line2d_4">
      <g>
       <use xlink:href="#m784bbe2134" x="249.563169" y="307.584" style="stroke: #000000; stroke-width: 0.8"/>
      </g>
     </g>
     <g id="text_4">
      <!-- 60 -->
      <g transform="translate(243.200669 322.182437)scale(0.1 -0.1)">
       <defs>
        <path id="DejaVuSans-36" d="M 2113 2584 
Q 1688 2584 1439 2293 
Q 1191 2003 1191 1497 
Q 1191 994 1439 701 
Q 1688 409 2113 409 
Q 2538 409 2786 701 
Q 3034 994 3034 1497 
Q 3034 2003 2786 2293 
Q 2538 2584 2113 2584 
z
M 3366 4563 
L 3366 3988 
Q 3128 4100 2886 4159 
Q 2644 4219 2406 4219 
Q 1781 4219 1451 3797 
Q 1122 3375 1075 2522 
Q 1259 2794 1537 2939 
Q 1816 3084 2150 3084 
Q 2853 3084 3261 2657 
Q 3669 2231 3669 1497 
Q 3669 778 3244 343 
Q 2819 -91 2113 -91 
Q 1303 -91 875 529 
Q 447 1150 447 2328 
Q 447 3434 972 4092 
Q 1497 4750 2381 4750 
Q 2619 4750 2861 4703 
Q 3103 4656 3366 4563 
z
" transform="scale(0.015625)"/>
       </defs>
       <use xlink:href="#DejaVuSans-36"/>
       <use xlink:href="#DejaVuSans-30" x="63.623047"/>
      </g>
     </g>
    </g>
    <g id="xtick_5">
     <g id="line2d_5">
      <g>
       <use xlink:href="#m784bbe2134" x="309.132811" y="307.584" style="stroke: #000000; stroke-width: 0.8"/>
      </g>
     </g>
     <g id="text_5">
      <!-- 80 -->
      <g transform="translate(302.770311 322.182437)scale(0.1 -0.1)">
       <defs>
        <path id="DejaVuSans-38" d="M 2034 2216 
Q 1584 2216 1326 1975 
Q 1069 1734 1069 1313 
Q 1069 891 1326 650 
Q 1584 409 2034 409 
Q 2484 409 2743 651 
Q 3003 894 3003 1313 
Q 3003 1734 2745 1975 
Q 2488 2216 2034 2216 
z
M 1403 2484 
Q 997 2584 770 2862 
Q 544 3141 544 3541 
Q 544 4100 942 4425 
Q 1341 4750 2034 4750 
Q 2731 4750 3128 4425 
Q 3525 4100 3525 3541 
Q 3525 3141 3298 2862 
Q 3072 2584 2669 2484 
Q 3125 2378 3379 2068 
Q 3634 1759 3634 1313 
Q 3634 634 3220 271 
Q 2806 -91 2034 -91 
Q 1263 -91 848 271 
Q 434 634 434 1313 
Q 434 1759 690 2068 
Q 947 2378 1403 2484 
z
M 1172 3481 
Q 1172 3119 1398 2916 
Q 1625 2713 2034 2713 
Q 2441 2713 2670 2916 
Q 2900 3119 2900 3481 
Q 2900 3844 2670 4047 
Q 2441 4250 2034 4250 
Q 1625 4250 1398 4047 
Q 1172 3844 1172 3481 
z
" transform="scale(0.015625)"/>
       </defs>
       <use xlink:href="#DejaVuSans-38"/>
       <use xlink:href="#DejaVuSans-30" x="63.623047"/>
      </g>
     </g>
    </g>
    <g id="xtick_6">
     <g id="line2d_6">
      <g>
       <use xlink:href="#m784bbe2134" x="368.702452" y="307.584" style="stroke: #000000; stroke-width: 0.8"/>
      </g>
     </g>
     <g id="text_6">
      <!-- 100 -->
      <g transform="translate(359.158702 322.182437)scale(0.1 -0.1)">
       <defs>
        <path id="DejaVuSans-31" d="M 794 531 
L 1825 531 
L 1825 4091 
L 703 3866 
L 703 4441 
L 1819 4666 
L 2450 4666 
L 2450 531 
L 3481 531 
L 3481 0 
L 794 0 
L 794 531 
z
" transform="scale(0.015625)"/>
       </defs>
       <use xlink:href="#DejaVuSans-31"/>
       <use xlink:href="#DejaVuSans-30" x="63.623047"/>
       <use xlink:href="#DejaVuSans-30" x="127.246094"/>
      </g>
     </g>
    </g>
    <g id="text_7">
     <!-- Number of events -->
     <g transform="translate(191.230312 335.860562)scale(0.1 -0.1)">
      <defs>
       <path id="DejaVuSans-4e" d="M 628 4666 
L 1478 4666 
L 3547 763 
L 3547 4666 
L 4159 4666 
L 4159 0 
L 3309 0 
L 1241 3903 
L 1241 0 
L 628 0 
L 628 4666 
z
" transform="scale(0.015625)"/>
       <path id="DejaVuSans-75" d="M 544 1381 
L 544 3500 
L 1119 3500 
L 1119 1403 
Q 1119 906 1312 657 
Q 1506 409 1894 409 
Q 2359 409 2629 706 
Q 2900 1003 2900 1516 
L 2900 3500 
L 3475 3500 
L 3475 0 
L 2900 0 
L 2900 538 
Q 2691 219 2414 64 
Q 2138 -91 1772 -91 
Q 1169 -91 856 284 
Q 544 659 544 1381 
z
M 1991 3584 
L 1991 3584 
z
" transform="scale(0.015625)"/>
       <path id="DejaVuSans-6d" d="M 3328 2828 
Q 3544 3216 3844 3400 
Q 4144 3584 4550 3584 
Q 5097 3584 5394 3201 
Q 5691 2819 5691 2113 
L 5691 0 
L 5113 0 
L 5113 2094 
Q 5113 2597 4934 2840 
Q 4756 3084 4391 3084 
Q 3944 3084 3684 2787 
Q 3425 2491 3425 1978 
L 3425 0 
L 2847 0 
L 2847 2094 
Q 2847 2600 2669 2842 
Q 2491 3084 2119 3084 
Q 1678 3084 1418 2786 
Q 1159 2488 1159 1978 
L 1159 0 
L 581 0 
L 581 3500 
L 1159 3500 
L 1159 2956 
Q 1356 3278 1631 3431 
Q 1906 3584 2284 3584 
Q 2666 3584 2933 3390 
Q 3200 3197 3328 2828 
z
" transform="scale(0.015625)"/>
       <path id="DejaVuSans-62" d="M 3116 1747 
Q 3116 2381 2855 2742 
Q 2594 3103 2138 3103 
Q 1681 3103 1420 2742 
Q 1159 2381 1159 1747 
Q 1159 1113 1420 752 
Q 1681 391 2138 391 
Q 2594 391 2855 752 
Q 3116 1113 3116 1747 
z
M 1159 2969 
Q 1341 3281 1617 3432 
Q 1894 3584 2278 3584 
Q 2916 3584 3314 3078 
Q 3713 2572 3713 1747 
Q 3713 922 3314 415 
Q 2916 -91 2278 -91 
Q 1894 -91 1617 61 
Q 1341 213 1159 525 
L 1159 0 
L 581 0 
L 581 4863 
L 1159 4863 
L 1159 2969 
z
" transform="scale(0.015625)"/>
       <path id="DejaVuSans-65" d="M 3597 1894 
L 3597 1613 
L 953 1613 
Q 991 1019 1311 708 
Q 1631 397 2203 397 
Q 2534 397 2845 478 
Q 3156 559 3463 722 
L 3463 178 
Q 3153 47 2828 -22 
Q 2503 -91 2169 -91 
Q 1331 -91 842 396 
Q 353 884 353 1716 
Q 353 2575 817 3079 
Q 1281 3584 2069 3584 
Q 2775 3584 3186 3129 
Q 3597 2675 3597 1894 
z
M 3022 2063 
Q 3016 2534 2758 2815 
Q 2500 3097 2075 3097 
Q 1594 3097 1305 2825 
Q 1016 2553 972 2059 
L 3022 2063 
z
" transform="scale(0.015625)"/>
       <path id="DejaVuSans-72" d="M 2631 2963 
Q 2534 3019 2420 3045 
Q 2306 3072 2169 3072 
Q 1681 3072 1420 2755 
Q 1159 2438 1159 1844 
L 1159 0 
L 581 0 
L 581 3500 
L 1159 3500 
L 1159 2956 
Q 1341 3275 1631 3429 
Q 1922 3584 2338 3584 
Q 2397 3584 2469 3576 
Q 2541 3569 2628 3553 
L 2631 2963 
z
" transform="scale(0.015625)"/>
       <path id="DejaVuSans-20" transform="scale(0.015625)"/>
       <path id="DejaVuSans-6f" d="M 1959 3097 
Q 1497 3097 1228 2736 
Q 959 2375 959 1747 
Q 959 1119 1226 758 
Q 1494 397 1959 397 
Q 2419 397 2687 759 
Q 2956 1122 2956 1747 
Q 2956 2369 2687 2733 
Q 2419 3097 1959 3097 
z
M 1959 3584 
Q 2709 3584 3137 3096 
Q 3566 2609 3566 1747 
Q 3566 888 3137 398 
Q 2709 -91 1959 -91 
Q 1206 -91 779 398 
Q 353 888 353 1747 
Q 353 2609 779 3096 
Q 1206 3584 1959 3584 
z
" transform="scale(0.015625)"/>
       <path id="DejaVuSans-66" d="M 2375 4863 
L 2375 4384 
L 1825 4384 
Q 1516 4384 1395 4259 
Q 1275 4134 1275 3809 
L 1275 3500 
L 2222 3500 
L 2222 3053 
L 1275 3053 
L 1275 0 
L 697 0 
L 697 3053 
L 147 3053 
L 147 3500 
L 697 3500 
L 697 3744 
Q 697 4328 969 4595 
Q 1241 4863 1831 4863 
L 2375 4863 
z
" transform="scale(0.015625)"/>
       <path id="DejaVuSans-76" d="M 191 3500 
L 800 3500 
L 1894 563 
L 2988 3500 
L 3597 3500 
L 2284 0 
L 1503 0 
L 191 3500 
z
" transform="scale(0.015625)"/>
       <path id="DejaVuSans-6e" d="M 3513 2113 
L 3513 0 
L 2938 0 
L 2938 2094 
Q 2938 2591 2744 2837 
Q 2550 3084 2163 3084 
Q 1697 3084 1428 2787 
Q 1159 2491 1159 1978 
L 1159 0 
L 581 0 
L 581 3500 
L 1159 3500 
L 1159 2956 
Q 1366 3272 1645 3428 
Q 1925 3584 2291 3584 
Q 2894 3584 3203 3211 
Q 3513 2838 3513 2113 
z
" transform="scale(0.015625)"/>
       <path id="DejaVuSans-74" d="M 1172 4494 
L 1172 3500 
L 2356 3500 
L 2356 3053 
L 1172 3053 
L 1172 1153 
Q 1172 725 1289 603 
Q 1406 481 1766 481 
L 2356 481 
L 2356 0 
L 1766 0 
Q 1100 0 847 248 
Q 594 497 594 1153 
L 594 3053 
L 172 3053 
L 172 3500 
L 594 3500 
L 594 4494 
L 1172 4494 
z
" transform="scale(0.015625)"/>
       <path id="DejaVuSans-73" d="M 2834 3397 
L 2834 2853 
Q 2591 2978 2328 3040 
Q 2066 3103 1784 3103 
Q 1356 3103 1142 2972 
Q 928 2841 928 2578 
Q 928 2378 1081 2264 
Q 1234 2150 1697 2047 
L 1894 2003 
Q 2506 1872 2764 1633 
Q 3022 1394 3022 966 
Q 3022 478 2636 193 
Q 2250 -91 1575 -91 
Q 1294 -91 989 -36 
Q 684 19 347 128 
L 347 722 
Q 666 556 975 473 
Q 1284 391 1588 391 
Q 1994 391 2212 530 
Q 2431 669 2431 922 
Q 2431 1156 2273 1281 
Q 2116 1406 1581 1522 
L 1381 1569 
Q 847 1681 609 1914 
Q 372 2147 372 2553 
Q 372 3047 722 3315 
Q 1072 3584 1716 3584 
Q 2034 3584 2315 3537 
Q 2597 3491 2834 3397 
z
" transform="scale(0.015625)"/>
      </defs>
      <use xlink:href="#DejaVuSans-4e"/>
      <use xlink:href="#DejaVuSans-75" x="74.804688"/>
      <use xlink:href="#DejaVuSans-6d" x="138.183594"/>
      <use xlink:href="#DejaVuSans-62" x="235.595703"/>
      <use xlink:href="#DejaVuSans-65" x="299.072266"/>
      <use xlink:href="#DejaVuSans-72" x="360.595703"/>
      <use xlink:href="#DejaVuSans-20" x="401.708984"/>
      <use xlink:href="#DejaVuSans-6f" x="433.496094"/>
      <use xlink:href="#DejaVuSans-66" x="494.677734"/>
      <use xlink:href="#DejaVuSans-20" x="529.882812"/>
      <use xlink:href="#DejaVuSans-65" x="561.669922"/>
      <use xlink:href="#DejaVuSans-76" x="623.193359"/>
      <use xlink:href="#DejaVuSans-65" x="682.373047"/>
      <use xlink:href="#DejaVuSans-6e" x="743.896484"/>
      <use xlink:href="#DejaVuSans-74" x="807.275391"/>
      <use xlink:href="#DejaVuSans-73" x="846.484375"/>
     </g>
    </g>
   </g>
   <g id="matplotlib.axis_2">
    <g id="ytick_1">
     <g id="line2d_7">
      <defs>
       <path id="m8d35542c93" d="M 0 0 
L -3.5 0 
" style="stroke: #000000; stroke-width: 0.8"/>
      </defs>
      <g>
       <use xlink:href="#m8d35542c93" x="57.6" y="295.492707" style="stroke: #000000; stroke-width: 0.8"/>
      </g>
     </g>
     <g id="text_8">
      <!-- 0 -->
      <g transform="translate(44.2375 299.291925)scale(0.1 -0.1)">
       <use xlink:href="#DejaVuSans-30"/>
      </g>
     </g>
    </g>
    <g id="ytick_2">
     <g id="line2d_8">
      <g>
       <use xlink:href="#m8d35542c93" x="57.6" y="248.426559" style="stroke: #000000; stroke-width: 0.8"/>
      </g>
     </g>
     <g id="text_9">
      <!-- 50000 -->
      <g transform="translate(18.7875 252.225778)scale(0.1 -0.1)">
       <defs>
        <path id="DejaVuSans-35" d="M 691 4666 
L 3169 4666 
L 3169 4134 
L 1269 4134 
L 1269 2991 
Q 1406 3038 1543 3061 
Q 1681 3084 1819 3084 
Q 2600 3084 3056 2656 
Q 3513 2228 3513 1497 
Q 3513 744 3044 326 
Q 2575 -91 1722 -91 
Q 1428 -91 1123 -41 
Q 819 9 494 109 
L 494 744 
Q 775 591 1075 516 
Q 1375 441 1709 441 
Q 2250 441 2565 725 
Q 2881 1009 2881 1497 
Q 2881 1984 2565 2268 
Q 2250 2553 1709 2553 
Q 1456 2553 1204 2497 
Q 953 2441 691 2322 
L 691 4666 
z
" transform="scale(0.015625)"/>
       </defs>
       <use xlink:href="#DejaVuSans-35"/>
       <use xlink:href="#DejaVuSans-30" x="63.623047"/>
       <use xlink:href="#DejaVuSans-30" x="127.246094"/>
       <use xlink:href="#DejaVuSans-30" x="190.869141"/>
       <use xlink:href="#DejaVuSans-30" x="254.492188"/>
      </g>
     </g>
    </g>
    <g id="ytick_3">
     <g id="line2d_9">
      <g>
       <use xlink:href="#m8d35542c93" x="57.6" y="201.360411" style="stroke: #000000; stroke-width: 0.8"/>
      </g>
     </g>
     <g id="text_10">
      <!-- 100000 -->
      <g transform="translate(12.425 205.15963)scale(0.1 -0.1)">
       <use xlink:href="#DejaVuSans-31"/>
       <use xlink:href="#DejaVuSans-30" x="63.623047"/>
       <use xlink:href="#DejaVuSans-30" x="127.246094"/>
       <use xlink:href="#DejaVuSans-30" x="190.869141"/>
       <use xlink:href="#DejaVuSans-30" x="254.492188"/>
       <use xlink:href="#DejaVuSans-30" x="318.115234"/>
      </g>
     </g>
    </g>
    <g id="ytick_4">
     <g id="line2d_10">
      <g>
       <use xlink:href="#m8d35542c93" x="57.6" y="154.294263" style="stroke: #000000; stroke-width: 0.8"/>
      </g>
     </g>
     <g id="text_11">
      <!-- 150000 -->
      <g transform="translate(12.425 158.093482)scale(0.1 -0.1)">
       <use xlink:href="#DejaVuSans-31"/>
       <use xlink:href="#DejaVuSans-35" x="63.623047"/>
       <use xlink:href="#DejaVuSans-30" x="127.246094"/>
       <use xlink:href="#DejaVuSans-30" x="190.869141"/>
       <use xlink:href="#DejaVuSans-30" x="254.492188"/>
       <use xlink:href="#DejaVuSans-30" x="318.115234"/>
      </g>
     </g>
    </g>
    <g id="ytick_5">
     <g id="line2d_11">
      <g>
       <use xlink:href="#m8d35542c93" x="57.6" y="107.228115" style="stroke: #000000; stroke-width: 0.8"/>
      </g>
     </g>
     <g id="text_12">
      <!-- 200000 -->
      <g transform="translate(12.425 111.027334)scale(0.1 -0.1)">
       <use xlink:href="#DejaVuSans-32"/>
       <use xlink:href="#DejaVuSans-30" x="63.623047"/>
       <use xlink:href="#DejaVuSans-30" x="127.246094"/>
       <use xlink:href="#DejaVuSans-30" x="190.869141"/>
       <use xlink:href="#DejaVuSans-30" x="254.492188"/>
       <use xlink:href="#DejaVuSans-30" x="318.115234"/>
      </g>
     </g>
    </g>
    <g id="ytick_6">
     <g id="line2d_12">
      <g>
       <use xlink:href="#m8d35542c93" x="57.6" y="60.161967" style="stroke: #000000; stroke-width: 0.8"/>
      </g>
     </g>
     <g id="text_13">
      <!-- 250000 -->
      <g transform="translate(12.425 63.961186)scale(0.1 -0.1)">
       <use xlink:href="#DejaVuSans-32"/>
       <use xlink:href="#DejaVuSans-35" x="63.623047"/>
       <use xlink:href="#DejaVuSans-30" x="127.246094"/>
       <use xlink:href="#DejaVuSans-30" x="190.869141"/>
       <use xlink:href="#DejaVuSans-30" x="254.492188"/>
       <use xlink:href="#DejaVuSans-30" x="318.115234"/>
      </g>
     </g>
    </g>
    <g id="text_14">
     <!-- Number of bits -->
     <g transform="translate(6.345312 211.739719)rotate(-90)scale(0.1 -0.1)">
      <defs>
       <path id="DejaVuSans-69" d="M 603 3500 
L 1178 3500 
L 1178 0 
L 603 0 
L 603 3500 
z
M 603 4863 
L 1178 4863 
L 1178 4134 
L 603 4134 
L 603 4863 
z
" transform="scale(0.015625)"/>
      </defs>
      <use xlink:href="#DejaVuSans-4e"/>
      <use xlink:href="#DejaVuSans-75" x="74.804688"/>
      <use xlink:href="#DejaVuSans-6d" x="138.183594"/>
      <use xlink:href="#DejaVuSans-62" x="235.595703"/>
      <use xlink:href="#DejaVuSans-65" x="299.072266"/>
      <use xlink:href="#DejaVuSans-72" x="360.595703"/>
      <use xlink:href="#DejaVuSans-20" x="401.708984"/>
      <use xlink:href="#DejaVuSans-6f" x="433.496094"/>
      <use xlink:href="#DejaVuSans-66" x="494.677734"/>
      <use xlink:href="#DejaVuSans-20" x="529.882812"/>
      <use xlink:href="#DejaVuSans-62" x="561.669922"/>
      <use xlink:href="#DejaVuSans-69" x="625.146484"/>
      <use xlink:href="#DejaVuSans-74" x="652.929688"/>
      <use xlink:href="#DejaVuSans-73" x="692.138672"/>
     </g>
    </g>
   </g>
   <g id="line2d_13">
    <path d="M 73.832727 294.89026 
L 76.811209 294.89026 
L 79.789691 294.89026 
L 82.768173 294.89026 
L 85.746656 294.89026 
L 88.725138 294.89026 
L 91.70362 294.89026 
L 94.682102 294.89026 
L 97.660584 294.89026 
L 100.639066 294.89026 
L 103.617548 294.89026 
L 106.59603 294.89026 
L 109.574512 294.89026 
L 112.552994 294.89026 
L 115.531476 294.89026 
L 118.509958 294.89026 
L 121.48844 294.89026 
L 124.466922 294.89026 
L 127.445405 294.89026 
L 130.423887 294.89026 
L 133.402369 294.89026 
L 136.380851 294.89026 
L 139.359333 294.89026 
L 142.337815 294.89026 
L 145.316297 294.89026 
L 148.294779 294.89026 
L 151.273261 294.89026 
L 154.251743 294.89026 
L 157.230225 294.89026 
L 160.208707 294.89026 
L 163.187189 294.89026 
L 166.165671 294.89026 
L 169.144153 294.89026 
L 172.122636 294.89026 
L 175.101118 294.89026 
L 178.0796 294.89026 
L 181.058082 294.89026 
L 184.036564 294.89026 
L 187.015046 294.89026 
L 189.993528 294.89026 
L 192.97201 294.89026 
L 195.950492 294.89026 
L 198.928974 294.89026 
L 201.907456 294.89026 
L 204.885938 294.89026 
L 207.86442 294.89026 
L 210.842902 294.89026 
L 213.821384 294.89026 
L 216.799867 294.89026 
L 219.778349 294.89026 
L 222.756831 294.89026 
L 225.735313 294.89026 
L 228.713795 294.89026 
L 231.692277 294.89026 
L 234.670759 294.89026 
L 237.649241 294.89026 
L 240.627723 294.89026 
L 243.606205 294.89026 
L 246.584687 294.89026 
L 249.563169 294.89026 
L 252.541651 294.89026 
L 255.520133 294.89026 
L 258.498616 294.89026 
L 261.477098 294.89026 
L 264.45558 294.89026 
L 267.434062 294.89026 
L 270.412544 294.89026 
L 273.391026 294.89026 
L 276.369508 294.89026 
L 279.34799 294.89026 
L 282.326472 294.89026 
L 285.304954 294.89026 
L 288.283436 294.89026 
L 291.261918 294.89026 
L 294.2404 294.89026 
L 297.218882 294.89026 
L 300.197364 294.89026 
L 303.175847 294.89026 
L 306.154329 294.89026 
L 309.132811 294.89026 
L 312.111293 294.89026 
L 315.089775 294.89026 
L 318.068257 294.89026 
L 321.046739 294.89026 
L 324.025221 294.89026 
L 327.003703 294.89026 
L 329.982185 294.89026 
L 332.960667 294.89026 
L 335.939149 294.89026 
L 338.917631 294.89026 
L 341.896113 294.89026 
L 344.874595 294.89026 
L 347.853078 294.89026 
L 350.83156 294.89026 
L 353.810042 294.89026 
L 356.788524 294.89026 
L 359.767006 294.89026 
L 362.745488 294.89026 
L 365.72397 294.89026 
L 368.702452 294.89026 
L 371.680934 294.89026 
L 374.659416 294.89026 
L 377.637898 294.89026 
L 380.61638 294.89026 
L 383.594862 294.89026 
L 386.573344 294.89026 
L 389.551827 294.89026 
L 392.530309 294.89026 
L 395.508791 294.89026 
L 398.487273 294.89026 
" clip-path="url(#p446533749a)" style="fill: none; stroke: #1f77b4; stroke-width: 1.5; stroke-linecap: square"/>
   </g>
   <g id="line2d_14">
    <path d="M 73.832727 295.488 
L 76.811209 295.412694 
L 79.789691 295.323268 
L 82.768173 295.085114 
L 85.746656 294.871433 
L 88.725138 294.807424 
L 91.70362 294.664342 
L 94.682102 294.488315 
L 97.660584 294.445955 
L 100.639066 294.351823 
L 103.617548 294.257691 
L 106.59603 294.177678 
L 109.574512 294.173913 
L 112.552994 293.7522 
L 115.531476 293.697604 
L 118.509958 293.55264 
L 121.48844 293.490513 
L 124.466922 293.336136 
L 127.445405 293.002907 
L 130.423887 292.695095 
L 133.402369 292.449409 
L 136.380851 292.37128 
L 139.359333 292.183015 
L 142.337815 292.094531 
L 145.316297 292.060643 
L 148.294779 292.039934 
L 151.273261 292.006046 
L 154.251743 291.255812 
L 157.230225 291.192743 
L 160.208707 291.159797 
L 163.187189 291.088256 
L 166.165671 291.066606 
L 169.144153 291.021423 
L 172.122636 291.003537 
L 175.101118 290.951765 
L 178.0796 290.838806 
L 181.058082 290.454746 
L 184.036564 290.276836 
L 187.015046 290.040564 
L 189.993528 289.898424 
L 192.97201 289.488007 
L 195.950492 289.333631 
L 198.928974 288.838495 
L 201.907456 288.732125 
L 204.885938 288.637052 
L 207.86442 288.601281 
L 210.842902 288.570218 
L 213.821384 288.567394 
L 216.799867 288.537271 
L 219.778349 288.50056 
L 222.756831 288.371598 
L 225.735313 288.20875 
L 228.713795 287.905644 
L 231.692277 287.550765 
L 234.670759 287.455691 
L 237.649241 287.444395 
L 240.627723 287.323906 
L 243.606205 287.211889 
L 246.584687 287.153527 
L 249.563169 286.80053 
L 252.541651 286.621679 
L 255.520133 286.420236 
L 258.498616 286.401409 
L 261.477098 286.153842 
L 264.45558 286.07477 
L 267.434062 286.037118 
L 270.412544 285.986286 
L 273.391026 285.34148 
L 276.369508 285.271822 
L 279.34799 285.106149 
L 282.326472 285.011075 
L 285.304954 284.636429 
L 288.283436 284.625133 
L 291.261918 284.319203 
L 294.2404 284.23166 
L 297.218882 284.064105 
L 300.197364 283.81183 
L 303.175847 283.629213 
L 306.154329 283.597208 
L 309.132811 283.464482 
L 312.111293 283.254567 
L 315.089775 283.068185 
L 318.068257 283.014529 
L 321.046739 282.885568 
L 324.025221 282.814028 
L 327.003703 281.999783 
L 329.982185 281.928243 
L 332.960667 281.261786 
L 335.939149 281.13659 
L 338.917631 280.755354 
L 341.896113 280.642396 
L 344.874595 280.499315 
L 347.853078 280.400476 
L 350.83156 280.250805 
L 353.810042 280.004179 
L 356.788524 279.918518 
L 359.767006 279.885572 
L 362.745488 279.78485 
L 365.72397 279.705779 
L 368.702452 279.534459 
L 371.680934 279.297245 
L 374.659416 279.119335 
L 377.637898 278.445348 
L 380.61638 278.153538 
L 383.594862 278.139418 
L 386.573344 277.873024 
L 389.551827 277.857021 
L 392.530309 277.778891 
L 395.508791 277.036187 
L 398.487273 276.743436 
" clip-path="url(#p446533749a)" style="fill: none; stroke: #ff7f0e; stroke-width: 1.5; stroke-linecap: square"/>
   </g>
   <g id="line2d_15">
    <path d="M 73.832727 295.457878 
L 76.811209 295.280909 
L 79.789691 294.455369 
L 82.768173 294.06472 
L 85.746656 293.451918 
L 88.725138 292.808995 
L 91.70362 292.333627 
L 94.682102 292.087 
L 97.660584 291.181447 
L 100.639066 291.051545 
L 103.617548 291.048721 
L 106.59603 290.309782 
L 109.574512 289.579316 
L 112.552994 288.556098 
L 115.531476 288.255816 
L 118.509958 287.7042 
L 121.48844 287.393564 
L 124.466922 287.229774 
L 127.445405 287.103636 
L 130.423887 286.882426 
L 133.402369 286.837242 
L 136.380851 285.352776 
L 139.359333 285.091088 
L 142.337815 284.883056 
L 145.316297 284.742798 
L 148.294779 284.708911 
L 151.273261 284.613837 
L 154.251743 284.40204 
L 157.230225 283.380704 
L 160.208707 283.336462 
L 163.187189 282.782023 
L 166.165671 282.44597 
L 169.144153 281.839758 
L 172.122636 281.757863 
L 175.101118 280.361881 
L 178.0796 279.453505 
L 181.058082 279.241707 
L 184.036564 279.194641 
L 187.015046 279.112746 
L 189.993528 278.199663 
L 192.97201 278.156362 
L 195.950492 277.341176 
L 198.928974 277.261164 
L 201.907456 275.790817 
L 204.885938 275.756929 
L 207.86442 274.496498 
L 210.842902 274.46261 
L 213.821384 272.981909 
L 216.799867 272.771053 
L 219.778349 272.412409 
L 222.756831 272.160134 
L 225.735313 270.368797 
L 228.713795 270.143821 
L 231.692277 269.713636 
L 234.670759 269.671277 
L 237.649241 269.668453 
L 240.627723 268.967167 
L 243.606205 267.898765 
L 246.584687 267.16924 
L 249.563169 266.045301 
L 252.541651 265.916339 
L 255.520133 265.611351 
L 258.498616 265.222584 
L 261.477098 265.135983 
L 264.45558 264.966544 
L 267.434062 264.843231 
L 270.412544 264.836642 
L 273.391026 262.941759 
L 276.369508 261.746279 
L 279.34799 260.269343 
L 282.326472 258.840415 
L 285.304954 258.320804 
L 288.283436 257.636463 
L 291.261918 257.026485 
L 294.2404 256.47487 
L 297.218882 255.815003 
L 300.197364 255.311395 
L 303.175847 254.918863 
L 306.154329 254.108384 
L 309.132811 253.900352 
L 312.111293 252.902549 
L 315.089775 252.478954 
L 318.068257 251.757901 
L 321.046739 251.755077 
L 324.025221 249.797125 
L 327.003703 249.367882 
L 329.982185 249.031829 
L 332.960667 248.885924 
L 335.939149 248.545165 
L 338.917631 248.324896 
L 341.896113 247.091763 
L 344.874595 246.693583 
L 347.853078 246.489316 
L 350.83156 246.317995 
L 353.810042 246.274694 
L 356.788524 244.942722 
L 359.767006 244.600081 
L 362.745488 243.946803 
L 365.72397 242.95559 
L 368.702452 242.59977 
L 371.680934 242.306077 
L 374.659416 241.39017 
L 377.637898 240.869618 
L 380.61638 240.864911 
L 383.594862 239.91041 
L 386.573344 239.517878 
L 389.551827 238.620798 
L 392.530309 238.617974 
L 395.508791 238.576555 
L 398.487273 238.185906 
" clip-path="url(#p446533749a)" style="fill: none; stroke: #2ca02c; stroke-width: 1.5; stroke-linecap: square"/>
   </g>
   <g id="line2d_16">
    <path d="M 73.832727 294.855431 
L 76.811209 293.625122 
L 79.789691 271.536979 
L 82.768173 259.15011 
L 85.746656 259.055978 
L 88.725138 251.092385 
L 91.70362 230.699565 
L 94.682102 229.969098 
L 97.660584 224.383288 
L 100.639066 214.958762 
L 103.617548 217.335603 
L 106.59603 208.556825 
L 109.574512 199.371395 
L 112.552994 204.670102 
L 115.531476 208.127582 
L 118.509958 200.133867 
L 121.48844 194.26566 
L 124.466922 194.766444 
L 127.445405 198.861198 
L 130.423887 188.042574 
L 133.402369 190.387409 
L 136.380851 194.25154 
L 139.359333 189.094973 
L 142.337815 177.939354 
L 145.316297 182.162129 
L 148.294779 173.132018 
L 151.273261 164.356064 
L 154.251743 141.961991 
L 157.230225 146.146172 
L 160.208707 141.720071 
L 163.187189 148.474063 
L 166.165671 159.368935 
L 169.144153 163.120107 
L 172.122636 165.075235 
L 175.101118 171.341622 
L 178.0796 151.606786 
L 181.058082 152.23559 
L 184.036564 148.968258 
L 187.015046 139.162496 
L 189.993528 115.773445 
L 192.97201 116.884206 
L 195.950492 119.418247 
L 198.928974 112.75274 
L 201.907456 130.442081 
L 204.885938 127.863797 
L 207.86442 125.78818 
L 210.842902 119.024774 
L 213.821384 126.630664 
L 216.799867 125.914317 
L 219.778349 124.688715 
L 222.756831 123.367097 
L 225.735313 120.406637 
L 228.713795 120.22402 
L 231.692277 113.374954 
L 234.670759 114.112951 
L 237.649241 98.544411 
L 240.627723 98.024801 
L 243.606205 104.617827 
L 246.584687 75.727684 
L 249.563169 80.092598 
L 252.541651 86.822116 
L 255.520133 82.347067 
L 258.498616 97.390349 
L 261.477098 95.291199 
L 264.45558 93.327599 
L 267.434062 90.041441 
L 270.412544 82.699122 
L 273.391026 58.582427 
L 276.369508 70.769736 
L 279.34799 76.298125 
L 282.326472 53.568 
L 285.304954 73.925992 
L 288.283436 73.662421 
L 291.261918 78.116761 
L 294.2404 76.765022 
L 297.218882 79.220933 
L 300.197364 101.652659 
L 303.175847 120.190132 
L 306.154329 110.244114 
L 309.132811 103.994671 
L 312.111293 106.005337 
L 315.089775 112.216186 
L 318.068257 111.567614 
L 321.046739 93.690008 
L 324.025221 118.987122 
L 327.003703 126.806691 
L 329.982185 115.119226 
L 332.960667 107.655476 
L 335.939149 110.8748 
L 338.917631 114.925313 
L 341.896113 118.995593 
L 344.874595 102.594924 
L 347.853078 97.321632 
L 350.83156 100.684979 
L 353.810042 98.637602 
L 356.788524 98.689375 
L 359.767006 98.380621 
L 362.745488 93.781317 
L 365.72397 88.93821 
L 368.702452 91.576738 
L 371.680934 83.760934 
L 374.659416 82.916567 
L 377.637898 74.983097 
L 380.61638 83.053059 
L 383.594862 84.24195 
L 386.573344 87.988415 
L 389.551827 90.120512 
L 392.530309 84.429273 
L 395.508791 82.138093 
L 398.487273 70.803623 
" clip-path="url(#p446533749a)" style="fill: none; stroke: #d62728; stroke-width: 1.5; stroke-linecap: square"/>
   </g>
   <g id="patch_3">
    <path d="M 57.6 307.584 
L 57.6 41.472 
" style="fill: none; stroke: #000000; stroke-width: 0.8; stroke-linejoin: miter; stroke-linecap: square"/>
   </g>
   <g id="patch_4">
    <path d="M 414.72 307.584 
L 414.72 41.472 
" style="fill: none; stroke: #000000; stroke-width: 0.8; stroke-linejoin: miter; stroke-linecap: square"/>
   </g>
   <g id="patch_5">
    <path d="M 57.6 307.584 
L 414.72 307.584 
" style="fill: none; stroke: #000000; stroke-width: 0.8; stroke-linejoin: miter; stroke-linecap: square"/>
   </g>
   <g id="patch_6">
    <path d="M 57.6 41.472 
L 414.72 41.472 
" style="fill: none; stroke: #000000; stroke-width: 0.8; stroke-linejoin: miter; stroke-linecap: square"/>
   </g>
   <g id="text_15">
    <!-- Growth in the size of the clocks -->
    <g transform="translate(141.889687 35.472)scale(0.12 -0.12)">
     <defs>
      <path id="DejaVuSans-47" d="M 3809 666 
L 3809 1919 
L 2778 1919 
L 2778 2438 
L 4434 2438 
L 4434 434 
Q 4069 175 3628 42 
Q 3188 -91 2688 -91 
Q 1594 -91 976 548 
Q 359 1188 359 2328 
Q 359 3472 976 4111 
Q 1594 4750 2688 4750 
Q 3144 4750 3555 4637 
Q 3966 4525 4313 4306 
L 4313 3634 
Q 3963 3931 3569 4081 
Q 3175 4231 2741 4231 
Q 1884 4231 1454 3753 
Q 1025 3275 1025 2328 
Q 1025 1384 1454 906 
Q 1884 428 2741 428 
Q 3075 428 3337 486 
Q 3600 544 3809 666 
z
" transform="scale(0.015625)"/>
      <path id="DejaVuSans-77" d="M 269 3500 
L 844 3500 
L 1563 769 
L 2278 3500 
L 2956 3500 
L 3675 769 
L 4391 3500 
L 4966 3500 
L 4050 0 
L 3372 0 
L 2619 2869 
L 1863 0 
L 1184 0 
L 269 3500 
z
" transform="scale(0.015625)"/>
      <path id="DejaVuSans-68" d="M 3513 2113 
L 3513 0 
L 2938 0 
L 2938 2094 
Q 2938 2591 2744 2837 
Q 2550 3084 2163 3084 
Q 1697 3084 1428 2787 
Q 1159 2491 1159 1978 
L 1159 0 
L 581 0 
L 581 4863 
L 1159 4863 
L 1159 2956 
Q 1366 3272 1645 3428 
Q 1925 3584 2291 3584 
Q 2894 3584 3203 3211 
Q 3513 2838 3513 2113 
z
" transform="scale(0.015625)"/>
      <path id="DejaVuSans-7a" d="M 353 3500 
L 3084 3500 
L 3084 2975 
L 922 459 
L 3084 459 
L 3084 0 
L 275 0 
L 275 525 
L 2438 3041 
L 353 3041 
L 353 3500 
z
" transform="scale(0.015625)"/>
      <path id="DejaVuSans-63" d="M 3122 3366 
L 3122 2828 
Q 2878 2963 2633 3030 
Q 2388 3097 2138 3097 
Q 1578 3097 1268 2742 
Q 959 2388 959 1747 
Q 959 1106 1268 751 
Q 1578 397 2138 397 
Q 2388 397 2633 464 
Q 2878 531 3122 666 
L 3122 134 
Q 2881 22 2623 -34 
Q 2366 -91 2075 -91 
Q 1284 -91 818 406 
Q 353 903 353 1747 
Q 353 2603 823 3093 
Q 1294 3584 2113 3584 
Q 2378 3584 2631 3529 
Q 2884 3475 3122 3366 
z
" transform="scale(0.015625)"/>
      <path id="DejaVuSans-6c" d="M 603 4863 
L 1178 4863 
L 1178 0 
L 603 0 
L 603 4863 
z
" transform="scale(0.015625)"/>
      <path id="DejaVuSans-6b" d="M 581 4863 
L 1159 4863 
L 1159 1991 
L 2875 3500 
L 3609 3500 
L 1753 1863 
L 3688 0 
L 2938 0 
L 1159 1709 
L 1159 0 
L 581 0 
L 581 4863 
z
" transform="scale(0.015625)"/>
     </defs>
     <use xlink:href="#DejaVuSans-47"/>
     <use xlink:href="#DejaVuSans-72" x="77.490234"/>
     <use xlink:href="#DejaVuSans-6f" x="116.353516"/>
     <use xlink:href="#DejaVuSans-77" x="177.535156"/>
     <use xlink:href="#DejaVuSans-74" x="259.322266"/>
     <use xlink:href="#DejaVuSans-68" x="298.53125"/>
     <use xlink:href="#DejaVuSans-20" x="361.910156"/>
     <use xlink:href="#DejaVuSans-69" x="393.697266"/>
     <use xlink:href="#DejaVuSans-6e" x="421.480469"/>
     <use xlink:href="#DejaVuSans-20" x="484.859375"/>
     <use xlink:href="#DejaVuSans-74" x="516.646484"/>
     <use xlink:href="#DejaVuSans-68" x="555.855469"/>
     <use xlink:href="#DejaVuSans-65" x="619.234375"/>
     <use xlink:href="#DejaVuSans-20" x="680.757812"/>
     <use xlink:href="#DejaVuSans-73" x="712.544922"/>
     <use xlink:href="#DejaVuSans-69" x="764.644531"/>
     <use xlink:href="#DejaVuSans-7a" x="792.427734"/>
     <use xlink:href="#DejaVuSans-65" x="844.917969"/>
     <use xlink:href="#DejaVuSans-20" x="906.441406"/>
     <use xlink:href="#DejaVuSans-6f" x="938.228516"/>
     <use xlink:href="#DejaVuSans-66" x="999.410156"/>
     <use xlink:href="#DejaVuSans-20" x="1034.615234"/>
     <use xlink:href="#DejaVuSans-74" x="1066.402344"/>
     <use xlink:href="#DejaVuSans-68" x="1105.611328"/>
     <use xlink:href="#DejaVuSans-65" x="1168.990234"/>
     <use xlink:href="#DejaVuSans-20" x="1230.513672"/>
     <use xlink:href="#DejaVuSans-63" x="1262.300781"/>
     <use xlink:href="#DejaVuSans-6c" x="1317.28125"/>
     <use xlink:href="#DejaVuSans-6f" x="1345.064453"/>
     <use xlink:href="#DejaVuSans-63" x="1406.246094"/>
     <use xlink:href="#DejaVuSans-6b" x="1461.226562"/>
     <use xlink:href="#DejaVuSans-73" x="1519.136719"/>
    </g>
   </g>
   <g id="legend_1">
    <g id="patch_7">
     <path d="M 64.6 108.1845 
L 146.126563 108.1845 
Q 148.126563 108.1845 148.126563 106.1845 
L 148.126563 48.472 
Q 148.126563 46.472 146.126563 46.472 
L 64.6 46.472 
Q 62.6 46.472 62.6 48.472 
L 62.6 106.1845 
Q 62.6 108.1845 64.6 108.1845 
z
" style="fill: #ffffff; opacity: 0.8; stroke: #cccccc; stroke-linejoin: miter"/>
    </g>
    <g id="line2d_17">
     <path d="M 66.6 54.570438 
L 76.6 54.570438 
L 86.6 54.570438 
" style="fill: none; stroke: #1f77b4; stroke-width: 1.5; stroke-linecap: square"/>
    </g>
    <g id="text_16">
     <!-- VC -->
     <g transform="translate(94.6 58.070438)scale(0.1 -0.1)">
      <defs>
       <path id="DejaVuSans-56" d="M 1831 0 
L 50 4666 
L 709 4666 
L 2188 738 
L 3669 4666 
L 4325 4666 
L 2547 0 
L 1831 0 
z
" transform="scale(0.015625)"/>
       <path id="DejaVuSans-43" d="M 4122 4306 
L 4122 3641 
Q 3803 3938 3442 4084 
Q 3081 4231 2675 4231 
Q 1875 4231 1450 3742 
Q 1025 3253 1025 2328 
Q 1025 1406 1450 917 
Q 1875 428 2675 428 
Q 3081 428 3442 575 
Q 3803 722 4122 1019 
L 4122 359 
Q 3791 134 3420 21 
Q 3050 -91 2638 -91 
Q 1578 -91 968 557 
Q 359 1206 359 2328 
Q 359 3453 968 4101 
Q 1578 4750 2638 4750 
Q 3056 4750 3426 4639 
Q 3797 4528 4122 4306 
z
" transform="scale(0.015625)"/>
      </defs>
      <use xlink:href="#DejaVuSans-56"/>
      <use xlink:href="#DejaVuSans-43" x="68.408203"/>
     </g>
    </g>
    <g id="line2d_18">
     <path d="M 66.6 69.248563 
L 76.6 69.248563 
L 86.6 69.248563 
" style="fill: none; stroke: #ff7f0e; stroke-width: 1.5; stroke-linecap: square"/>
    </g>
    <g id="text_17">
     <!-- EVC -->
     <g transform="translate(94.6 72.748563)scale(0.1 -0.1)">
      <defs>
       <path id="DejaVuSans-45" d="M 628 4666 
L 3578 4666 
L 3578 4134 
L 1259 4134 
L 1259 2753 
L 3481 2753 
L 3481 2222 
L 1259 2222 
L 1259 531 
L 3634 531 
L 3634 0 
L 628 0 
L 628 4666 
z
" transform="scale(0.015625)"/>
      </defs>
      <use xlink:href="#DejaVuSans-45"/>
      <use xlink:href="#DejaVuSans-56" x="63.183594"/>
      <use xlink:href="#DejaVuSans-43" x="131.591797"/>
     </g>
    </g>
    <g id="line2d_19">
     <path d="M 66.6 83.926688 
L 76.6 83.926688 
L 86.6 83.926688 
" style="fill: none; stroke: #2ca02c; stroke-width: 1.5; stroke-linecap: square"/>
    </g>
    <g id="text_18">
     <!-- REVC -->
     <g transform="translate(94.6 87.426688)scale(0.1 -0.1)">
      <defs>
       <path id="DejaVuSans-52" d="M 2841 2188 
Q 3044 2119 3236 1894 
Q 3428 1669 3622 1275 
L 4263 0 
L 3584 0 
L 2988 1197 
Q 2756 1666 2539 1819 
Q 2322 1972 1947 1972 
L 1259 1972 
L 1259 0 
L 628 0 
L 628 4666 
L 2053 4666 
Q 2853 4666 3247 4331 
Q 3641 3997 3641 3322 
Q 3641 2881 3436 2590 
Q 3231 2300 2841 2188 
z
M 1259 4147 
L 1259 2491 
L 2053 2491 
Q 2509 2491 2742 2702 
Q 2975 2913 2975 3322 
Q 2975 3731 2742 3939 
Q 2509 4147 2053 4147 
L 1259 4147 
z
" transform="scale(0.015625)"/>
      </defs>
      <use xlink:href="#DejaVuSans-52"/>
      <use xlink:href="#DejaVuSans-45" x="69.482422"/>
      <use xlink:href="#DejaVuSans-56" x="132.666016"/>
      <use xlink:href="#DejaVuSans-43" x="201.074219"/>
     </g>
    </g>
    <g id="line2d_20">
     <path d="M 66.6 98.604813 
L 76.6 98.604813 
L 86.6 98.604813 
" style="fill: none; stroke: #d62728; stroke-width: 1.5; stroke-linecap: square"/>
    </g>
    <g id="text_19">
     <!-- DMTREVC -->
     <g transform="translate(94.6 102.104813)scale(0.1 -0.1)">
      <defs>
       <path id="DejaVuSans-44" d="M 1259 4147 
L 1259 519 
L 2022 519 
Q 2988 519 3436 956 
Q 3884 1394 3884 2338 
Q 3884 3275 3436 3711 
Q 2988 4147 2022 4147 
L 1259 4147 
z
M 628 4666 
L 1925 4666 
Q 3281 4666 3915 4102 
Q 4550 3538 4550 2338 
Q 4550 1131 3912 565 
Q 3275 0 1925 0 
L 628 0 
L 628 4666 
z
" transform="scale(0.015625)"/>
       <path id="DejaVuSans-4d" d="M 628 4666 
L 1569 4666 
L 2759 1491 
L 3956 4666 
L 4897 4666 
L 4897 0 
L 4281 0 
L 4281 4097 
L 3078 897 
L 2444 897 
L 1241 4097 
L 1241 0 
L 628 0 
L 628 4666 
z
" transform="scale(0.015625)"/>
       <path id="DejaVuSans-54" d="M -19 4666 
L 3928 4666 
L 3928 4134 
L 2272 4134 
L 2272 0 
L 1638 0 
L 1638 4134 
L -19 4134 
L -19 4666 
z
" transform="scale(0.015625)"/>
      </defs>
      <use xlink:href="#DejaVuSans-44"/>
      <use xlink:href="#DejaVuSans-4d" x="77.001953"/>
      <use xlink:href="#DejaVuSans-54" x="163.28125"/>
      <use xlink:href="#DejaVuSans-52" x="224.365234"/>
      <use xlink:href="#DejaVuSans-45" x="293.847656"/>
      <use xlink:href="#DejaVuSans-56" x="357.03125"/>
      <use xlink:href="#DejaVuSans-43" x="425.439453"/>
     </g>
    </g>
   </g>
  </g>
 </g>
 <defs>
  <clipPath id="p446533749a">
   <rect x="57.6" y="41.472" width="357.12" height="266.112"/>
  </clipPath>
 </defs>
</svg>
